<?xml version="1.0" encoding="UTF-8"?>
<!DOCTYPE svg PUBLIC "-//W3C//DTD SVG 1.1//EN" "http://www.w3.org/Graphics/SVG/1.1/DTD/svg11.dtd">
<!-- Creator: CorelDRAW X6 -->
<svg xmlns="http://www.w3.org/2000/svg" xml:space="preserve" width="375px" height="667px" version="1.1" style="shape-rendering:geometricPrecision; text-rendering:geometricPrecision; image-rendering:optimizeQuality; fill-rule:evenodd; clip-rule:evenodd"
viewBox="0 0 375 667"
 xmlns:xlink="http://www.w3.org/1999/xlink">
 <defs>
  <style type="text/css">
   <![CDATA[
    .str0 {stroke:#373435;stroke-width:2.3622}
    .str1 {stroke:#373435;stroke-width:2.3622}
    .fil5 {fill:#373435}
    .fil6 {fill:#373435}
    .fil2 {fill:#96989A}
    .fil4 {fill:#EDE82B}
    .fil1 {fill:#F2DC6C}
    .fil0 {fill:#FBF4D3}
    .fil3 {fill:#FEFEFE}
    .fnt0 {font-weight:normal;font-size:16.6665px;font-family:'Arial'}
    .fnt1 {font-weight:normal;font-size:24px;font-family:'Arial'}
    .fnt2 {font-weight:normal;font-size:33.3331px;font-family:'Arial'}
   ]]>
  </style>
 </defs>
 <g id="Layer_x0020_1">
  <metadata id="CorelCorpID_0Corel-Layer"/>
  <path class="fil0 str0" d="M58 90l272 0c11,0 20,9 20,20l0 412c0,11 -9,20 -20,20l-267 0c-11,0 -20,-9 -20,-20l-9 -405c0,-21 16,-26 24,-27z"/>
  <rect class="fil1 str0" x="34" y="99" width="307" height="452" rx="20" ry="23"/>
  <text x="77" y="212"  class="fil2 fnt0">LOGIN</text>
  <text x="76" y="290"  class="fil2 fnt0">PASSWORD</text>
  <rect class="fil3 str0" x="64" y="217" width="231.777" height="40.8886" rx="20" ry="20"/>
  <rect class="fil3 str0" x="64" y="294" width="231.777" height="40.8886" rx="20" ry="20"/>
  <rect class="fil4 str0" x="63" y="409" width="231.777" height="40.8886" rx="20" ry="20"/>
  <text x="149" y="438"  class="fil5 fnt1">Login</text>
  <text x="77" y="245"  class="fil5 fnt0">login value</text>
  <text x="77" y="320"  class="fil5 fnt0">password value</text>
  <text x="70" y="146"  class="fil6 fnt2">BiaWallet</text>
  <path class="fil1 str1" d="M350 324l0 61 -9 7 -34 0c-5,0 -10,-4 -10,-10l0 -43c0,-5 4,-10 10,-10l34 0 9 -5z"/>
 </g>
</svg>
