<?xml version="1.0" encoding="utf-8"?>
<!-- Generator: Adobe Illustrator 21.0.2, SVG Export Plug-In . SVG Version: 6.00 Build 0)  -->
<svg version="1.1" id="Слой_1" xmlns="http://www.w3.org/2000/svg" xmlns:xlink="http://www.w3.org/1999/xlink" x="0px" y="0px"
	 viewBox="0 0 722.9 768" enable-background="new 0 0 722.9 768" xml:space="preserve">
<g id="Слой_6">
	<g>
		<path fill="#FFFFFF" d="M357.9,561c-99,0-179.3-80.3-179.3-179.3s80.3-179.3,179.3-179.3s179.3,80.3,179.3,179.3
			S456.9,561,357.9,561L357.9,561z M357.9,118.2c-145.5,0-263.4,117.9-263.4,263.4S212.4,645,357.9,645s263.4-117.9,263.4-263.4
			S503.4,118.2,357.9,118.2L357.9,118.2z"/>
		<path fill="#FFFFFF" d="M329,65.5l0.4,0.3L342,51.5l10.9,5.6v5h-2.2v7.3h0.5l-10.8,44.9H338v5h-6.4V115H329V65.5L329,65.5z
			 M329.3,48.4l5.2,6.8l-5.7,6.5l-3.7-2.3L329.3,48.4L329.3,48.4z M338.5,35.1l5.1,6.7l-2.6,5.9l-4.3,4.9l-6.1-7.8l1.1-2.9
			L338.5,35.1L338.5,35.1z M345.2,28.3l3.4,2.1l-3.5,8l-4.3-5.6L345.2,28.3L345.2,28.3z M347.2,114.3l1.2-5h18.5l1.2,5H367v5h-18.7
			v-5H347.2L347.2,114.3z M352.1,93.8l13.8,12.2h-16.7L352.1,93.8L352.1,93.8z M354.5,83.8l3.1-13.1l1.1,4.8L354.5,83.8L354.5,83.8z
			 M356.2,87.7l3.8-7.3l1.8,7.3H356.2L356.2,87.7z M362.5,91l2.3,9.8l-11-9.8H362.5L362.5,91z M391.4,98.8v2.7h-2.7v17.8h-11.3v-5
			h-2.5l-10.7-44.9h1.1v-5.9l29,15.1c-0.3,0.5-0.5,1.1-0.5,1.7c0,0.8,0.3,1.5,0.7,2.1v16.4L391.4,98.8L391.4,98.8z M406.4,119.3
			h-0.2v-17.8h-2.7v-2.7H400V82.4c0.5-0.6,0.7-1.3,0.7-2.1c0-1.1-0.6-2.1-1.4-2.8l1.5-3l-55.5-28.8l7.2-16.7l-7.9-4.8L329,40.1
			l-7.9,20.5l4,2.4v52h-2.5v4.3h-1.8c-1.2,0-2.2,1-2.2,2.2s1,2.2,2.2,2.2h85.6c1.2,0,2.2-1,2.2-2.2
			C408.6,120.3,407.6,119.3,406.4,119.3L406.4,119.3z"/>
		<path fill="#FFFFFF" d="M508.8,85.2l-5.6,9.8l-3-7.4l4.2-5L508.8,85.2L508.8,85.2z M514.9,96.1l-8.8,1.2L512,87l5,2.9L514.9,96.1
			L514.9,96.1z M485.7,132.9l6.8,16.7l-12.3-7.1L485.7,132.9L485.7,132.9z M482.2,131.6l-5.2,9.1l-11.6-6.7L482.2,131.6L482.2,131.6
			z M483.5,127.4l-19.2,2.7l13.7-16.2L483.5,127.4L483.5,127.4z M486.5,124.1l-5.6-13.7l5.2-6.1l12.9-1.8L486.5,124.1L486.5,124.1z
			 M489.4,126.5l13-22.7l5.2,12.8l-2.7,7.7L489.4,126.5L489.4,126.5z M496.4,148.4l-7.3-17.8l14.3-2L496.4,148.4L496.4,148.4z
			 M509.7,110.9l-3.9-9.4l7.6-1.1L509.7,110.9L509.7,110.9z M497.3,91.1l2.9,7.1L490,99.6L497.3,91.1L497.3,91.1z M501.2,154.6
			l21.7-61.3l1.2,0.7l4.6-8.1l-3.2-1.8l3.2-5.6l-8.3-4.8l1.6-2.9l-3.7-2.1l-1.6,2.9l-8.3-4.8l-3.2,5.6l-3.2-1.8l-4.6,8.1l1.2,0.7
			l-42,49.6l-5.6-3.2l-5.2,9.1l55.3,31.7l5.2-9.1L501.2,154.6L501.2,154.6z"/>
		<path fill="#FFFFFF" d="M520.3,62.3c1.5-1.1,3.8-1,5-2.6c0.2-0.2,0.3-0.5,0.4-0.8c1,1.6,0.8,4.4,0.3,6.1c-0.4,1.9-1.7,3.6-3.7,4
			h-0.2l-2.6-1.4C518.3,66.1,518.6,63.5,520.3,62.3L520.3,62.3z M518,67.8l4.7,2.4l0.3-0.1c3.5-0.6,5.7-3.8,6.5-7.1
			c0.7-3,1.2-8-0.6-10.7c-0.1,0.4-0.4,1-0.7,1.4c-2.1,2.9-6.2,2.6-8.9,4.6C516.3,60.5,515.8,65.1,518,67.8L518,67.8z"/>
		<path fill="#FFFFFF" d="M278.1,707l2.8-11l4.9,6.3l-2.7,5.9L278.1,707L278.1,707z M269.3,698.2l8.1-3.6l-2.9,11.5l-5.6-1.4
			L269.3,698.2L269.3,698.2z M287.5,654.9l-11-14.2l13.8,3.5L287.5,654.9L287.5,654.9z M291.2,655.2l2.6-10.1l13,3.3L291.2,655.2
			L291.2,655.2z M291.1,659.6l17.8-7.8l-8.8,19.3L291.1,659.6L291.1,659.6z M289.1,663.5l9.1,11.7l-3.3,7.3l-11.9,5.2L289.1,663.5
			L289.1,663.5z M285.7,662l-6.4,25.4l-8.5-10.9l0.5-8.1L285.7,662L285.7,662z M273,642.8l11.8,15.2l-13.2,5.8L273,642.8L273,642.8z
			 M270.3,682.5l6.3,8.1l-7,3.1L270.3,682.5L270.3,682.5z M287.6,698.2l-4.7-6l9.3-4.1L287.6,698.2L287.6,698.2z M266.7,638.2
			l-4.3,64.8l-1.4-0.3l-2.3,9l3.6,0.9l-1.6,6.2l9.3,2.4l-0.8,3.2l4.1,1l0.8-3.2l9.3,2.4l1.6-6.2l3.6,0.9l2.3-9l-1.4-0.3l27.1-59.1
			l6.2,1.6l2.6-10.2l-61.8-15.6l-2.6,10.2L266.7,638.2L266.7,638.2z"/>
		<path fill="#FFFFFF" d="M273.2,732.2c-1.2,1.5-3.4,2-4.1,3.8c-0.1,0.3-0.2,0.6-0.2,0.9c-1.4-1.2-1.9-4-2-5.7
			c-0.1-1.9,0.6-4,2.4-4.8l0.2-0.1l2.9,0.6C274.1,728,274.5,730.6,273.2,732.2L273.2,732.2z M273.9,726.3l-5.1-1.1l-0.3,0.1
			c-3.2,1.5-4.5,5.2-4.3,8.6c0.1,3.1,1,8,3.5,10.2c0-0.5,0.2-1.1,0.3-1.6c1.3-3.3,5.2-4.2,7.3-6.8
			C277.6,732.9,276.9,728.3,273.9,726.3L273.9,726.3z"/>
		<path fill="#FFFFFF" d="M152.5,102.9c0.4,0.3,0.8,0.5,1,0.6s0.4,0.2,0.4,0.2s-0.1-0.1-0.2-0.4c-0.1-0.2-0.3-0.6-0.6-1
			c-0.2-0.4-0.5-1-0.8-1.6s-0.5-1.3-0.7-2c-0.1-0.3-0.1-0.7-0.1-1s0-0.4,0-0.6s0-0.4,0.1-0.5c0.1-0.7,0.4-1.4,0.8-2.1
			c0.2-0.3,0.5-0.7,0.8-1s0.6-0.6,1-0.9c0.2-0.1,0.4-0.3,0.5-0.4c0.2-0.1,0.4-0.2,0.6-0.4c0.5-0.3,1-0.6,1.4-0.9
			c0.5-0.3,1-0.6,1.5-0.9s1-0.7,1.5-1.1c0.9-0.8,1.9-1.7,2.5-2.7c0.3-0.5,0.6-1,0.9-1.6c0.1-0.3,0.2-0.5,0.3-0.8l0.1-0.2v-0.1v-0.1
			l0.1-0.4c0.4-1.2,0.4-2.3,0.1-3.3c-0.3-1-0.7-1.7-1.2-2.3c-0.5-0.6-0.9-1-1.3-1.4c-0.8-0.7-1.2-1-1.2-1s0.1,0.1,0.2,0.4
			c0.1,0.2,0.3,0.6,0.5,1.1c0.2,0.4,0.5,1,0.7,1.6s0.4,1.3,0.4,2c0,0.3,0,0.7-0.1,1s-0.2,0.7-0.4,1l-0.2,0.3v0.1l0,0l0,0l0,0l0,0
			l-0.1,0.1c-0.1,0.2-0.3,0.4-0.4,0.5l-0.4,0.5l-0.5,0.5c-0.6,0.6-1.4,1.2-2.2,1.7s-1.8,1.1-2.7,1.6c-0.5,0.3-1,0.6-1.5,0.9
			c-0.2,0.1-0.5,0.3-0.8,0.5s-0.5,0.4-0.8,0.6c-0.5,0.4-1,0.9-1.4,1.4s-0.8,1.1-1.1,1.7c-0.6,1.2-0.9,2.5-0.8,3.7
			c0,0.3,0,0.6,0.1,0.9c0,0.3,0.1,0.6,0.2,0.8c0.2,0.6,0.4,1.1,0.6,1.5c0.5,0.9,1.1,1.5,1.7,2C151.6,102.3,152.1,102.6,152.5,102.9
			L152.5,102.9z"/>
		<path fill="#FFFFFF" d="M147.9,91.2c0-0.4,0.1-0.9,0.3-1.4c0.1-0.5,0.4-1.1,0.7-1.6s0.7-1.1,1.3-1.5l0.4-0.3
			c0.1-0.1,0.3-0.2,0.5-0.3c0.3-0.2,0.7-0.3,1.1-0.5c0.8-0.3,1.6-0.6,2.6-1c0.9-0.4,1.9-1,2.6-1.8c0.8-0.8,1.3-1.7,1.8-2.6l0.1-0.2
			l0.1-0.2l0.1-0.3c0.1-0.3,0.2-0.5,0.2-0.8c0.1-0.5,0.2-1,0.2-1.6c0-1.1-0.2-2.1-0.6-2.9c-0.2-0.4-0.5-0.8-0.8-1.1
			c-0.3-0.3-0.6-0.6-0.9-0.9c-0.6-0.5-1.2-0.9-1.7-1.1c-0.5-0.3-1-0.4-1.4-0.6c-0.4-0.1-0.7-0.2-1-0.2c-0.2,0-0.3-0.1-0.3-0.1
			s0.1,0.1,0.3,0.2s0.4,0.3,0.8,0.6c0.6,0.5,1.5,1.3,2.3,2.3c0.4,0.5,0.7,1.1,0.9,1.7s0.3,1.3,0.2,2c0,0.4-0.1,0.7-0.2,1.1
			c0,0.2-0.1,0.4-0.2,0.5l-0.1,0.3l-0.1,0.1l0,0l0,0l0,0v0.1c-0.3,0.8-0.8,1.5-1.3,2c-0.5,0.6-1.2,1-1.9,1.4
			c-0.8,0.4-1.6,0.7-2.4,1.1c-0.4,0.2-0.8,0.4-1.2,0.7c-0.2,0.1-0.4,0.3-0.6,0.4c-0.2,0.1-0.4,0.3-0.5,0.5c-0.6,0.7-1.1,1.5-1.3,2.2
			c-0.3,0.7-0.3,1.4-0.4,2c0,0.6,0,1.1,0.1,1.5c0,0.2,0.1,0.4,0.1,0.6l0.1,0.4c0.1,0.2,0.1,0.3,0.1,0.3s0-0.1,0-0.3
			C147.9,91.9,147.9,91.6,147.9,91.2L147.9,91.2z"/>
		<path fill="#FFFFFF" d="M210.7,142.6l-6.8,5l-5-6.8l6.8-5L210.7,142.6L210.7,142.6z M193.3,155.4l-6.8,5l-5-6.8l6.8-5L193.3,155.4
			L193.3,155.4z M171.2,171.7l-6.8,5l-5-6.8l6.8-5L171.2,171.7L171.2,171.7z M224.2,151.4l-18.6-25.3l-5.3,3.9l-18.2-21.4
			c0.3-0.3,0.4-0.9,0.1-1.3c-0.3-0.5-1-0.6-1.4-0.3l-7,5.2c-0.4,0.3-0.5,1-0.1,1.4c0.3,0.4,0.8,0.5,1.3,0.4l6.5,10.9L162.8,103
			c0.4-0.5,0.4-1.2,0-1.7c-0.5-0.6-1.4-0.8-2-0.3l-10.5,7.7c-0.6,0.5-0.8,1.4-0.3,2c0.4,0.6,1.2,0.7,1.8,0.4l22.7,38.2l-5.4,4
			l-8.2-11.1l-0.3-0.4l-3.8-5.1l-13.6,31.2l3.9,5.3l1.7-3.8l18.1,24.5l-3.8,2.8l3.8,5.1l64.9-47.9l-3.8-5.1L224.2,151.4L224.2,151.4
			z"/>
		<path fill="#FFFFFF" d="M565.1,656.2c-0.4-0.3-0.8-0.4-1.1-0.6c-0.2-0.1-0.4-0.2-0.4-0.2s0.1,0.1,0.2,0.4c0.1,0.2,0.3,0.6,0.6,1
			c0.2,0.4,0.5,1,0.8,1.6s0.6,1.3,0.7,1.9c0.1,0.3,0.1,0.7,0.1,1s0,0.4,0,0.6c0,0.2,0,0.4-0.1,0.5c-0.1,0.7-0.4,1.4-0.8,2.1
			c-0.2,0.3-0.5,0.7-0.7,1c-0.3,0.3-0.6,0.6-0.9,0.9c-0.2,0.1-0.4,0.3-0.5,0.4c-0.2,0.1-0.3,0.2-0.6,0.4c-0.5,0.3-0.9,0.6-1.4,0.9
			c-0.5,0.3-1,0.6-1.4,1c-0.5,0.3-1,0.7-1.4,1.1c-0.9,0.8-1.8,1.7-2.5,2.8c-0.3,0.5-0.6,1.1-0.8,1.6c-0.1,0.3-0.2,0.5-0.3,0.8
			l-0.1,0.2v0.1v0.1l-0.1,0.4c-0.3,1.2-0.3,2.3,0,3.3s0.8,1.7,1.2,2.3c0.5,0.6,0.9,1,1.3,1.3c0.8,0.7,1.2,1,1.2,1s-0.1-0.1-0.2-0.4
			c-0.1-0.2-0.3-0.6-0.5-1s-0.5-1-0.7-1.6s-0.4-1.3-0.4-2c0-0.3,0-0.7,0.1-1s0.2-0.7,0.4-1l0.2-0.3v-0.1l0,0l0,0l0,0l0,0l0.1-0.1
			c0.1-0.2,0.2-0.4,0.4-0.5c0.1-0.2,0.3-0.4,0.4-0.5l0.5-0.5c0.6-0.6,1.3-1.2,2.2-1.8c0.8-0.6,1.8-1.1,2.7-1.7
			c0.5-0.3,1-0.6,1.4-0.9c0.2-0.1,0.5-0.3,0.8-0.5s0.5-0.4,0.8-0.6c0.5-0.5,0.9-0.9,1.4-1.5c0.4-0.5,0.8-1.1,1-1.7
			c0.6-1.2,0.8-2.5,0.7-3.8c0-0.3,0-0.6-0.1-0.9c-0.1-0.3-0.1-0.6-0.2-0.8c-0.2-0.6-0.4-1.1-0.7-1.5c-0.5-0.9-1.2-1.5-1.7-2
			C566.1,656.8,565.5,656.4,565.1,656.2L565.1,656.2z"/>
		<path fill="#FFFFFF" d="M570,667.8c0,0.4-0.1,0.9-0.3,1.4c-0.1,0.5-0.3,1.1-0.7,1.7c-0.3,0.6-0.7,1.1-1.3,1.5l-0.4,0.3
			c-0.1,0.1-0.3,0.2-0.5,0.3c-0.3,0.2-0.7,0.3-1.1,0.5c-0.8,0.3-1.6,0.6-2.5,1s-1.9,1-2.6,1.9c-0.7,0.8-1.3,1.7-1.7,2.7l-0.1,0.2
			l-0.1,0.2l-0.1,0.3c-0.1,0.3-0.2,0.5-0.2,0.8c-0.1,0.5-0.2,1-0.2,1.6c0,1.1,0.3,2.1,0.7,2.9c0.2,0.4,0.5,0.8,0.8,1.1
			s0.6,0.6,0.9,0.9c0.6,0.5,1.2,0.8,1.8,1.1c0.6,0.2,1,0.4,1.5,0.5c0.4,0.1,0.7,0.2,1,0.2c0.2,0,0.3,0.1,0.3,0.1s-0.1-0.1-0.3-0.2
			c-0.2-0.1-0.4-0.3-0.8-0.6c-0.7-0.5-1.6-1.2-2.4-2.2c-0.4-0.5-0.8-1.1-1-1.7c-0.2-0.6-0.3-1.3-0.3-2c0-0.4,0.1-0.7,0.2-1.1
			c0-0.2,0.1-0.4,0.2-0.5l0.1-0.3l0.1-0.1l0,0l0,0l0,0v-0.1c0.3-0.8,0.7-1.5,1.3-2.1c0.5-0.6,1.1-1.1,1.9-1.5
			c0.7-0.4,1.6-0.8,2.4-1.2c0.4-0.2,0.8-0.5,1.2-0.7c0.2-0.1,0.4-0.3,0.6-0.4c0.2-0.2,0.3-0.3,0.5-0.5c0.6-0.7,1-1.5,1.3-2.2
			c0.2-0.7,0.3-1.4,0.3-2s-0.1-1.1-0.2-1.5c0-0.2-0.1-0.4-0.1-0.6l-0.1-0.4c-0.1-0.2-0.1-0.3-0.1-0.3s0,0.1,0,0.3
			C570,667.1,570,667.4,570,667.8L570,667.8z"/>
		<path fill="#FFFFFF" d="M506,617.9l6.6-5.2l5.2,6.6l-6.6,5.2L506,617.9L506,617.9z M523.1,604.7l6.6-5.2l5.2,6.6l-6.6,5.2
			L523.1,604.7L523.1,604.7z M544.7,587.8l6.6-5.2l5.2,6.6l-6.6,5.2L544.7,587.8L544.7,587.8z M492.2,609.4l19.3,24.8l5.2-4l18.7,21
			c-0.3,0.3-0.3,0.9,0,1.3c0.4,0.5,1,0.6,1.4,0.2l6.9-5.4c0.4-0.3,0.5-1,0.1-1.4c-0.3-0.4-0.8-0.5-1.3-0.3l-6.7-10.7l19.2,21.5
			c-0.4,0.5-0.4,1.2,0,1.7c0.5,0.6,1.4,0.7,2,0.3l10.3-8c0.6-0.5,0.7-1.4,0.3-2s-1.2-0.7-1.8-0.3l-23.6-37.6l5.3-4.1l8.4,10.9
			l0.3,0.4l3.9,5l12.8-31.6l-4.1-5.2l-1.6,3.8l-18.6-24l3.7-2.9l-3.9-5l-63.8,49.5l3.9,5L492.2,609.4L492.2,609.4z"/>
		<path fill="#FFFFFF" d="M55.8,431.8c0.3,1.7-0.8,3.3-2.5,3.6c-1.6,0.3-3.2-0.9-3.5-2.6s0.8-3.3,2.5-3.6
			C53.9,428.9,55.5,430.1,55.8,431.8L55.8,431.8z M58.5,426.8l3.4-4.9c0,0,2.7-26.1,0.4-26.8c-2.3-0.7-11.7,22-11.7,22v8.4
			c-2,0.7-3.6,2.3-4.3,4.3v-0.1l-6.9-1c0,0-24.8,8.5-24.4,10.8s24.8,0.8,24.8,0.8l7.7-3.5v-0.1c1.3,1.6,3.3,2.6,5.4,2.6l1.2,6.1
			c0,0,16.4,20.5,18.4,19.4S65,441.1,65,441.1l-5.4-5.6l45.3-1.1l5.1,30.1l4.7-0.8l-14-82.2l-4.7,0.8l5,29.2L58.5,426.8L58.5,426.8z
			"/>
		<path fill="#FFFFFF" d="M42.1,420.8c-0.5-0.3-1-0.8-1.6-1.2c-0.6-0.5-1.2-1-1.7-1.6c-0.2-0.3-0.4-0.6-0.6-0.9
			c-0.2-0.2-0.2-0.3-0.3-0.5l-0.2-0.5c-0.3-0.7-0.4-1.4-0.3-2.1c0-0.4,0.1-0.7,0.2-1.1c0.1-0.4,0.3-0.7,0.5-1.1l0.3-0.5
			c0.1-0.2,0.2-0.3,0.4-0.5c0.3-0.4,0.6-0.8,0.9-1.2c0.3-0.4,0.6-0.8,0.9-1.3c0.3-0.4,0.6-0.9,0.8-1.4c0.5-1,0.9-2.1,0.9-3.2
			c0-0.6,0-1.1,0-1.7c0-0.3-0.1-0.5-0.1-0.8V401v-0.1v-0.1l-0.1-0.4c-0.3-1.2-0.9-2.2-1.7-3.1c-0.8-0.8-1.6-1.4-2.4-1.8
			c-0.7-0.4-1.4-0.7-1.9-0.9c-1.1-0.4-1.7-0.6-1.7-0.6s0.1,0.1,0.4,0.3c0.2,0.2,0.6,0.5,1,0.8c0.4,0.4,1,0.8,1.5,1.3
			s1.1,1.1,1.4,1.7c0.2,0.3,0.3,0.7,0.4,1c0.1,0.3,0.1,0.7,0.1,1v0.3v0.1l0,0l0,0l0,0l0,0v0.2c0,0.2,0,0.4-0.1,0.6
			c0,0.2-0.1,0.4-0.1,0.6s-0.1,0.4-0.2,0.6c-0.3,0.8-0.7,1.5-1.2,2.2s-1.1,1.5-1.7,2.3c-0.3,0.4-0.6,0.8-0.9,1.2
			c-0.1,0.2-0.3,0.5-0.5,0.7c-0.2,0.3-0.3,0.5-0.4,0.8c-0.2,0.5-0.4,1.1-0.6,1.7c-0.1,0.6-0.2,1.2-0.1,1.8c0.1,1.3,0.5,2.6,1.2,3.7
			c0.2,0.3,0.4,0.5,0.5,0.8c0.2,0.2,0.4,0.6,0.6,0.7c0.5,0.5,0.9,0.9,1.4,1.2c1,0.7,1.9,1.1,2.7,1.4s1.5,0.5,2,0.6
			c0.6,0.1,1,0.2,1.3,0.3c0.3,0.1,0.5,0.1,0.5,0.1s-0.1-0.1-0.4-0.3C42.9,421.4,42.6,421.2,42.1,420.8L42.1,420.8z"/>
		<path fill="#FFFFFF" d="M33.5,398.4L33.5,398.4L33.5,398.4L33.5,398.4z M25.5,391.5c0.2,0.1,0.6,0.2,1,0.3
			c0.9,0.3,2.1,0.7,3.4,1.4c0.6,0.4,1.3,0.8,1.8,1.3c0.5,0.5,1,1.1,1.3,1.8c0.2,0.3,0.3,0.7,0.4,1.1c0,0.2,0.1,0.4,0.1,0.5v0.3v0.1
			l0,0l0,0l0,0v0.1c0.1,0.8,0,1.6-0.2,2.2c-0.2,0.7-0.6,1.3-1.1,1.8c-0.5,0.6-1.1,1.1-1.7,1.7c-0.3,0.3-0.5,0.6-0.8,1
			c-0.1,0.1-0.2,0.3-0.3,0.5c-0.1,0.2-0.2,0.4-0.2,0.6c-0.3,0.8-0.2,1.6-0.1,2.4c0.1,0.7,0.4,1.4,0.7,2c0.3,0.6,0.6,1,0.9,1.4
			c0.1,0.2,0.3,0.3,0.4,0.5l0.3,0.3c0.2,0.2,0.3,0.3,0.3,0.3s-0.1-0.1-0.2-0.3c-0.1-0.2-0.3-0.5-0.4-0.9c-0.2-0.4-0.3-0.9-0.5-1.4
			c-0.1-0.5-0.2-1.1-0.2-1.7s0.1-1.2,0.4-1.7l0.2-0.4l0.3-0.4c0.2-0.2,0.5-0.5,0.8-0.7c0.6-0.5,1.2-1,1.9-1.6s1.3-1.4,1.6-2.4
			c0.3-0.9,0.3-1.9,0.3-2.9v-0.2v-0.2V398c-0.1-0.3-0.1-0.5-0.2-0.8c-0.1-0.5-0.3-1-0.6-1.5c-0.5-1-1.3-1.9-2.2-2.5
			c-0.4-0.3-0.9-0.6-1.3-0.8c-0.4-0.2-0.9-0.4-1.3-0.6c-0.8-0.3-1.6-0.5-2.2-0.5c-0.7-0.1-1.2-0.1-1.7-0.1c-0.4,0-0.8,0-1,0
			s-0.4,0-0.4,0S25.3,391.4,25.5,391.5L25.5,391.5z"/>
		<path fill="#FFFFFF" d="M618.9,376.8L618.9,376.8L618.9,376.8L618.9,376.8L618.9,376.8z M655,372.6l5.3,5.2l-5.3-0.2V372.6
			L655,372.6z M671.3,391l-3,0.1l-3.4-3.3l3.9-3.9l2.5,0.1V391L671.3,391z M675,372.6l6.1,6l-6.1-0.2V372.6L675,372.6z M675.3,402
			l-0.1-5.3l5.5-0.2L675.3,402L675.3,402z M675.2,384.1l3.5,3.4l-3.3,3.3h-0.2l-0.1-6.8L675.2,384.1L675.2,384.1z M681.8,384.4
			l-1.6,1.6l-1.8-1.8L681.8,384.4L681.8,384.4z M696,387.4l2-2.1v4.1L696,387.4L696,387.4z M681.8,390.6l-3.4,0.1l1.7-1.8
			L681.8,390.6L681.8,390.6z M689.8,384.3l3.2,3.2l-3.2,3.3C689.8,388.7,689.8,386.2,689.8,384.3L689.8,384.3z M684.3,390l-2.6-2.5
			l2.6-2.6V390L684.3,390z M692.7,390.8l1.8-1.9l1.2,1.2L692.7,390.8L692.7,390.8z M695.8,384.7l-1.2,1.3l-2.1-2L695.8,384.7
			L695.8,384.7z M655.3,402v-4.5l4.7-0.2L655.3,402L655.3,402z M620.4,397.9l-1.5,0.3V377l11.2,11L620.4,397.9L620.4,397.9z
			 M636.1,380.5l0.7,0.7l-4.7,4.8l-8.3-8.2L636.1,380.5L636.1,380.5z M645.5,385.6l-4.1-4l6.6,1.4L645.5,385.6L645.5,385.6z
			 M660.6,383.6l4.3,0.2l-2,2.1L660.6,383.6L660.6,383.6z M657.2,391.5l-2,0.1l-0.1-8.2h1.1l4.5,4.4L657.2,391.5L657.2,391.5z
			 M661.4,391.4l1.5-1.5l1.4,1.4L661.4,391.4L661.4,391.4z M647.5,387.7l3.7-3.8l0.1,7.5L647.5,387.7L647.5,387.7z M642,393.3
			l3.5-3.5l2.3,2.3L642,393.3L642,393.3z M634.1,388l4.7-4.8l4.6,4.5l-4.7,4.8L634.1,388L634.1,388z M636.6,394.4l-11,2.4l6.6-6.7
			L636.6,394.4L636.6,394.4z M618.9,404.4l31.1-6.7l1.4-0.1l0.1,7h-2.3v2.9l6.2-0.1l10.2-10.4l5.7-0.2l0.1,7.8h-2.3v2.9l6.2-0.1
			l11.1-11.3h0.7c0,0,2.8-0.1,2.8-2.4v-0.2l8.2-1.9v0.9h2.1v-9.1l0,0l0,0v-1.3h-2.1v0.8l-8.4-1.9c-0.5-1.8-2.7-2.3-2.7-2.3h-0.2
			L675,367.1h-6.8v2.8h2.8l0.1,8.3l-5-0.2l-11-10.8h-6.8v2.8h2.8l0.1,7.6h-0.4l-31.9-6.8v-11.3h-6v57.2h6L618.9,404.4L618.9,404.4z"
			/>
		<path fill="#FFFFFF" d="M616,426.5L616,426.5L616,426.5L616,426.5L616,426.5z M642.2,428.4l3,4.4l-3.7-0.9L642.2,428.4
			L642.2,428.4z M651.2,443.7l-2.2-0.3l-1.9-2.8l3.3-2.3l1.8,0.4L651.2,443.7L651.2,443.7z M656.4,431.2l3.5,5.1l-4.3-1L656.4,431.2
			L656.4,431.2z M652.5,452.1l0.7-3.8l3.9,0.6L652.5,452.1L652.5,452.1z M654.9,439.4l2,2.9l-2.8,1.9H654L654.9,439.4L654.9,439.4
			L654.9,439.4z M659.5,440.4l-1.4,0.9l-1-1.5L659.5,440.4L659.5,440.4z M669.2,444.6l1.7-1.2l-0.6,2.9L669.2,444.6L669.2,444.6z
			 M658.7,444.9l-2.4-0.4l1.5-1L658.7,444.9L658.7,444.9z M665.3,441.5l1.8,2.7l-2.7,1.9C664.7,444.6,665,442.9,665.3,441.5
			L665.3,441.5z M660.5,444.8l-1.5-2.2l2.2-1.5L660.5,444.8L660.5,444.8z M666.4,446.5l1.5-1.1l0.7,1L666.4,446.5L666.4,446.5z
			 M669.4,442.6l-1.1,0.7l-1.2-1.7L669.4,442.6L669.4,442.6z M638.4,449.3l0.6-3.2l3.3,0.5L638.4,449.3L638.4,449.3z M614.2,441.6
			h-1.1l2.9-15l6.4,9.3L614.2,441.6L614.2,441.6z M627.7,431.5l0.4,0.6l-4,2.8l-4.8-6.9L627.7,431.5L627.7,431.5z M633.6,436.4
			l-2.3-3.4l4.5,1.9L633.6,436.4L633.6,436.4z M644.6,437l3,0.7l-1.7,1.2L644.6,437L644.6,437z M641.1,442.2l-1.4-0.2l1.1-5.8
			l0.8,0.2l2.6,3.8L641.1,442.2L641.1,442.2z M644.1,442.6l1.2-0.9l0.8,1.2L644.1,442.6L644.1,442.6z M634.8,438.1l3.2-2.2l-1,5.3
			L634.8,438.1L634.8,438.1z M630.1,441.3l2.9-2l1.3,1.9L630.1,441.3L630.1,441.3z M625.3,436.5l4-2.8l2.6,3.8l-4,2.8L625.3,436.5
			L625.3,436.5z M626.1,441.4l-8.2,0.2l5.6-3.9L626.1,441.4L626.1,441.4z M612.2,446l23-0.5l1,0.2l-0.9,5l-1.6-0.3l-0.4,2.1l4.4,0.8
			l8.7-6l4.1,0.6l-1,5.5l-1.6-0.3l-0.4,2.1l4.4,0.8l9.4-6.5l0.5,0.1c0,0,2,0.3,2.3-1.3v-0.1l6.1-0.2l-0.1,0.6l1.5,0.3l1.3-6.4l0,0
			l0,0l0.2-0.9l-1.5-0.3l-0.1,0.6l-5.7-2.5c-0.1-1.3-1.6-2-1.6-2h-0.1l-6.8-9.9l-4.8-1l-0.4,2l2,0.4l-1.1,5.9l-3.5-0.8l-6.3-9.2
			l-4.8-1l-0.4,2l2,0.4l-1,5.4l-0.3-0.1l-21.7-9.2l1.6-8l-4.3-0.8l-7.8,40.5l4.3,0.8L612.2,446L612.2,446z"/>
		<path fill="#FFFFFF" d="M606.9,474.9L606.9,474.9L606.9,474.9L606.9,474.9L606.9,474.9z M628.1,482.8l1.5,4.4l-2.9-1.6
			L628.1,482.8L628.1,482.8z M631.9,497.6l-1.7-0.8l-0.9-2.8l3.2-1.1l1.4,0.8L631.9,497.6L631.9,497.6z M639.1,488.4l1.7,5.1
			l-3.3-1.8L639.1,488.4L639.1,488.4z M630.9,504.8l1.5-3l3.1,1.4L630.9,504.8L630.9,504.8z M636,494.9l1,2.9l-2.8,0.9l-0.1-0.1
			L636,494.9L636,494.9L636,494.9z M639.5,496.9l-1.4,0.4l-0.5-1.5L639.5,496.9L639.5,496.9z M646.6,502.6l1.7-0.6l-1.2,2.3
			L646.6,502.6L646.6,502.6z M637.8,500.4l-1.9-0.9l1.4-0.5L637.8,500.4L637.8,500.4z M644,499.1l0.9,2.7l-2.7,0.9
			C642.8,501.5,643.5,500.2,644,499.1L644,499.1z M639.3,500.7l-0.7-2.1l2.2-0.7L639.3,500.7L639.3,500.7z M643.8,503.5l1.5-0.5
			l0.3,1L643.8,503.5L643.8,503.5z M647.2,501l-1,0.3l-0.6-1.7L647.2,501L647.2,501z M619.9,499.1l1.3-2.5l2.6,1.2L619.9,499.1
			L619.9,499.1z M601.7,487l-0.9-0.2l6-11.7l3.1,9.2L601.7,487L601.7,487z M615.4,481.8l0.2,0.6l-4,1.3l-2.3-6.9L615.4,481.8
			L615.4,481.8z M619.1,487.3l-1.1-3.4l3.2,2.7L619.1,487.3L619.1,487.3z M628,490.4l2.3,1.3l-1.7,0.6L628,490.4L628,490.4z
			 M623.9,493.9l-1.1-0.5l2.3-4.6l0.6,0.4l1.2,3.7L623.9,493.9L623.9,493.9z M626.3,495l1.2-0.4l0.4,1.2L626.3,495L626.3,495z
			 M619.7,489l3.1-1l-2.1,4.2L619.7,489L619.7,489z M615,490.5l2.9-1l0.6,1.9L615,490.5L615,490.5z M612.1,485.4l4-1.3l1.3,3.8
			l-4,1.3L612.1,485.4L612.1,485.4z M611.7,489.6l-6.8-1.8l5.6-1.9L611.7,489.6L611.7,489.6z M599.1,490.1l19.1,5.1l0.8,0.4
			l-1.9,3.9l-1.3-0.6l-0.9,1.6l3.5,1.7l8.6-2.9l3.2,1.5l-2.2,4.3l-1.3-0.6l-0.9,1.6l3.5,1.7l9.3-3.1l0.4,0.2c0,0,1.6,0.7,2.2-0.5
			l0.1-0.1l5.1,1.3l-0.3,0.5l1.2,0.6l2.6-5l0,0l0,0l0.4-0.7l-1.2-0.6l-0.2,0.5l-4.1-3.4c0.2-1.1-0.8-2-0.8-2h-0.1l-3.3-9.8l-3.8-2
			l-0.8,1.5l1.6,0.8l-2.3,4.6l-2.7-1.5l-3-9.1l-3.8-2l-0.8,1.5l1.6,0.8l-2.1,4.2l-0.2-0.1l-15.8-12.8l3.2-6.3l-3.3-1.7l-16.2,31.7
			l3.3,1.7L599.1,490.1L599.1,490.1z"/>
		<path fill="#FFFFFF" d="M608.8,201.5c0.2-1.4-0.4-1.1-0.9-2c-0.6-0.9,0-1.6-0.2-2.6c-0.1-1.1-1-1.5-1.7-2.5
			c-0.4-0.6-0.2-1.1-0.4-1.6s-0.8-0.7-1.2-1.2c-0.9-1.2-0.6-2.7-1.1-3.9c-0.3-0.6-1.1-1-1.4-1.6c-0.3-0.7-0.1-1.3-0.3-1.9
			c-0.4-1.3-2.4-1.4-2.5-2.9c-0.2-1.8,1-1.8-0.7-3.2c-1-0.8-1.3-1.9-2.2-2.7c-1-0.9-2.2,0-3-1.3c-0.5-1-0.4-2.1-1.7-2.7
			c-0.7-0.3-1.2,0-1.8-0.5c-0.5-0.3-0.5-1-0.9-1.4c-0.8-0.8-1.8-0.6-2.8-1.2c-1.9-1.1-3.9-1.5-5.8-2.5c-0.6-0.3-0.6-0.5-1.3-0.6
			c-0.7-0.2-0.8,0-1.4-0.4c-0.9-0.5-1.4-1.6-2.2-2.1c-0.6-0.4-1.1-0.1-1.7-0.3c-0.8-0.2-0.6-0.4-1.1-0.9c-0.7-0.6-1.5-1.4-2.5-1
			l37.9,43C608.2,203,608.7,202.2,608.8,201.5L608.8,201.5z"/>
		<path fill="#FFFFFF" d="M588.4,221.9c-0.5-0.5-0.4-1.4,0.1-1.8c0.5-0.5,1.4-0.4,1.8,0.1c0.5,0.5,0.4,1.4-0.1,1.8
			C589.7,222.5,588.9,222.5,588.4,221.9L588.4,221.9z M570.1,215c-0.9-1-0.8-2.6,0.2-3.5s2.6-0.8,3.5,0.2s0.8,2.6-0.2,3.5
			C572.5,216.2,571,216.1,570.1,215L570.1,215z M554.4,197.3c-0.9-1-0.8-2.6,0.2-3.5s2.6-0.8,3.5,0.2s0.8,2.6-0.2,3.5
			S555.3,198.3,554.4,197.3L554.4,197.3z M550.2,178c-0.5-0.5-0.4-1.4,0.1-1.8c0.5-0.5,1.4-0.4,1.8,0.1c0.4,0.4,0.4,1.1,0.1,1.6
			l-0.5,0.5C551.2,178.5,550.6,178.4,550.2,178L550.2,178z M591.4,219.4c-0.5-0.6-1.3-0.9-2-0.9l-1.2-1.4l1.5-1.3l-0.3-0.4l16.2-8.9
			c0.6,0.6,1.6,0.7,2.2,0.1c0.7-0.6,0.7-1.6,0.1-2.2l-38.5-43.7c-0.6-0.7-1.6-0.7-2.2-0.1c-0.7,0.6-0.7,1.6-0.1,2.2l0.5,0.5
			L557,178.1l-0.6-0.7l-2,1.7l-0.8-1c0.4-0.9,0.3-2-0.4-2.8c-0.9-1.1-2.6-1.2-3.7-0.2c-1.1,0.9-1.2,2.6-0.2,3.7
			c0.9,1,2.3,1.1,3.4,0.4l0.7,0.8l-1.9,1.7l1.7,1.9l-0.7,1l1.6,1.8l-2.6,2.3l2.2,2.5c-0.2,0.1-0.5,0.3-0.7,0.5
			c-2.1,1.9-2.3,5.1-0.5,7.2c1.9,2.1,5.1,2.3,7.2,0.5c0.2-0.2,0.4-0.4,0.6-0.6l9,10.2c-0.2,0.1-0.5,0.3-0.7,0.5
			c-1.6,1.4-2.1,3.5-1.5,5.4l-3-3.4l-0.8,0.7l-6.2-7l0.8-0.7l-3.6-4l-0.8,0.7l-5.7-6.5l0.8-0.7l-3.6-4l-0.8,0.7l-0.4-0.4l-2.7,2.4
			l0.4,0.4l-0.8,0.7l3.5,4l0.8-0.7l5.7,6.5l-0.8,0.7l3.6,4l0.8-0.7l6.2,7l-0.8,0.7l3.6,4l0.8-0.7l4.8,5.4l-0.8,0.7l3.6,4l0.8-0.7
			l0.5,0.6l2.7-2.4l-0.5-0.6l0.8-0.7l-3.6-4l-0.8,0.7l-4.8-5.4l0.6-0.5c0.2,0.3,0.4,0.6,0.7,0.9c1.9,2.1,5.1,2.3,7.2,0.5
			c0.2-0.2,0.4-0.4,0.6-0.6l2.5,2.8l2.6-2.3l1.7,1.9l0.7-0.4l1.3,1.5l1.5-1.3l1,1.1c-0.5,0.9-0.3,2.1,0.4,2.9
			c0.9,1.1,2.6,1.2,3.7,0.2C592.2,222.1,592.3,220.4,591.4,219.4L591.4,219.4z"/>
		<path fill="#FFFFFF" d="M641,260.4c0.5-1.3-0.1-1.1-0.5-2.2c-0.3-1,0.3-1.5,0.5-2.5c0.1-1.1-0.7-1.7-1-2.8c-0.2-0.7,0.1-1.1,0-1.7
			c-0.1-0.5-0.7-0.9-0.9-1.4c-0.6-1.3,0.1-2.7-0.2-4.1c-0.1-0.7-0.9-1.2-1-1.9c-0.2-0.7,0.2-1.3,0.2-2c-0.1-1.3-2-2-1.8-3.4
			c0.2-1.8,1.4-1.5,0-3.3c-0.8-1-0.8-2.1-1.5-3.1c-0.8-1.1-2.2-0.5-2.6-2c-0.3-1.1,0.1-2.2-1-3c-0.6-0.4-1.2-0.3-1.6-0.9
			c-0.4-0.4-0.2-1.1-0.5-1.6c-0.6-1-1.6-1-2.4-1.8c-1.6-1.5-3.4-2.4-5.1-3.8c-0.5-0.4-0.5-0.6-1.1-0.9c-0.6-0.3-0.7-0.2-1.3-0.7
			c-0.7-0.7-1-1.9-1.7-2.6c-0.5-0.5-1-0.4-1.5-0.6c-0.7-0.4-0.5-0.5-0.9-1.1c-0.5-0.8-1.1-1.7-2.2-1.6l26.9,50.6
			C640,261.8,640.7,261,641,260.4L641,260.4z"/>
		<path fill="#FFFFFF" d="M616.4,275.6c-0.3-0.6-0.1-1.4,0.5-1.8c0.6-0.3,1.4-0.1,1.8,0.5c0.3,0.6,0.1,1.4-0.5,1.8
			C617.5,276.4,616.7,276.2,616.4,275.6L616.4,275.6z M600.1,264.6c-0.6-1.2-0.2-2.7,1-3.3c1.2-0.6,2.7-0.2,3.3,1s0.2,2.7-1,3.3
			C602.3,266.3,600.8,265.8,600.1,264.6L600.1,264.6z M589,243.7c-0.6-1.2-0.2-2.7,1-3.3s2.7-0.2,3.3,1s0.2,2.7-1,3.3
			C591.2,245.4,589.7,244.9,589,243.7L589,243.7z M589.4,224c-0.3-0.6-0.1-1.4,0.5-1.8c0.6-0.3,1.4-0.1,1.8,0.5
			c0.3,0.5,0.2,1.1-0.2,1.5l-0.6,0.3C590.3,224.7,589.7,224.5,589.4,224L589.4,224z M619.9,273.7c-0.4-0.7-1-1.2-1.8-1.3l-0.9-1.6
			l1.8-0.9l-0.2-0.4l17.8-4.9c0.4,0.8,1.4,1.1,2.1,0.6c0.8-0.4,1.1-1.4,0.7-2.2l-27.3-51.5c-0.4-0.8-1.4-1.1-2.2-0.7
			c-0.8,0.4-1.1,1.4-0.7,2.2l0.3,0.6l-13.5,12l-0.4-0.8l-2.3,1.2l-0.6-1.1c0.6-0.8,0.7-1.9,0.3-2.8c-0.7-1.3-2.2-1.7-3.5-1.1
			c-1.3,0.7-1.7,2.2-1.1,3.5c0.6,1.2,2,1.6,3.2,1.2l0.5,1l-2.3,1.2l1.2,2.2l-0.9,0.8l1.1,2.1l-3.1,1.6l1.6,3
			c-0.3,0.1-0.5,0.2-0.8,0.3c-2.5,1.3-3.4,4.4-2.1,6.9c1.3,2.5,4.4,3.4,6.9,2.1c0.3-0.1,0.5-0.3,0.7-0.5l6.4,12
			c-0.3,0.1-0.5,0.2-0.8,0.3c-1.9,1-2.9,3-2.7,4.9l-2.1-4l-0.9,0.5l-4.4-8.2l0.9-0.5l-2.5-4.7l-0.9,0.5l-4.1-7.7l0.9-0.5l-2.5-4.7
			l-0.9,0.5l-0.2-0.5l-3.2,1.7l0.3,0.5l-0.9,0.5l2.5,4.7l0.9-0.5l4.1,7.7l-0.9,0.5l2.5,4.7l0.9-0.5l4.4,8.2l-0.9,0.5l2.5,4.7
			l0.9-0.5l3.4,6.4l-0.9,0.5l2.5,4.8l0.9-0.5l0.4,0.7l3.2-1.7l-0.4-0.7l0.9-0.5L601,271l-0.9,0.5l-3.4-6.4l0.7-0.4
			c0.1,0.4,0.2,0.7,0.4,1.1c1.3,2.5,4.4,3.4,6.9,2.1c0.2-0.1,0.5-0.3,0.7-0.5l1.8,3.3l3.1-1.6l1.2,2.3l0.8-0.2l0.9,1.7l1.8-0.9
			l0.7,1.3c-0.7,0.8-0.8,1.9-0.3,2.9c0.7,1.3,2.2,1.7,3.5,1.1C620,276.6,620.5,275,619.9,273.7L619.9,273.7z"/>
		<path fill="#FFFFFF" d="M103.6,559.2c-0.1,1.4,0.4,1.1,1,2s0,1.6,0.2,2.6c0.2,1.1,1.1,1.5,1.7,2.5c0.4,0.6,0.2,1.1,0.4,1.6
			c0.2,0.5,0.8,0.7,1.2,1.2c0.9,1.2,0.6,2.7,1.2,3.9c0.3,0.6,1.1,1,1.4,1.6c0.3,0.7,0.1,1.3,0.3,1.9c0.4,1.3,2.4,1.4,2.6,2.9
			c0.2,1.8-1,1.8,0.8,3.2c1,0.8,1.3,1.9,2.2,2.7c1,0.9,2.2,0,3,1.3c0.6,1,0.4,2.1,1.7,2.7c0.7,0.3,1.2,0,1.8,0.5
			c0.5,0.3,0.5,1,0.9,1.4c0.8,0.8,1.8,0.6,2.8,1.1c2,1,3.9,1.5,5.8,2.5c0.6,0.3,0.6,0.5,1.3,0.6c0.7,0.2,0.8,0,1.4,0.4
			c0.9,0.5,1.4,1.6,2.2,2.1c0.6,0.4,1.1,0.1,1.7,0.3c0.8,0.2,0.6,0.4,1.1,0.9c0.7,0.6,1.5,1.3,2.5,1l-38.1-42.8
			C104.2,557.7,103.7,558.6,103.6,559.2L103.6,559.2z"/>
		<path fill="#FFFFFF" d="M123.9,538.7c0.5,0.5,0.4,1.4-0.1,1.8c-0.5,0.5-1.4,0.4-1.8-0.1c-0.5-0.5-0.4-1.4,0.1-1.8
			C122.6,538.1,123.4,538.2,123.9,538.7L123.9,538.7z M142.3,545.5c0.9,1,0.8,2.6-0.2,3.5s-2.6,0.8-3.5-0.2s-0.8-2.6,0.2-3.5
			C139.8,544.4,141.4,544.5,142.3,545.5L142.3,545.5z M158,563.2c0.9,1,0.8,2.6-0.2,3.5s-2.6,0.8-3.5-0.2s-0.8-2.6,0.2-3.5
			S157.1,562.2,158,563.2L158,563.2z M162.3,582.5c0.5,0.5,0.4,1.4-0.1,1.8c-0.5,0.5-1.4,0.4-1.8-0.1c-0.4-0.4-0.4-1.1-0.1-1.6
			l0.5-0.5C161.3,581.9,161.9,582,162.3,582.5L162.3,582.5z M121,541.3c0.5,0.6,1.3,0.9,2,0.9l1.2,1.4l-1.5,1.3l0.3,0.4l-16.2,9
			c-0.6-0.6-1.6-0.7-2.2-0.1c-0.7,0.6-0.7,1.6-0.1,2.3l38.8,43.5c0.6,0.7,1.6,0.7,2.2,0.1c0.7-0.6,0.7-1.6,0.1-2.3l-0.5-0.5l10.4-15
			l0.6,0.7l2-1.8l0.9,1c-0.4,0.9-0.3,2,0.4,2.8c0.9,1.1,2.6,1.2,3.7,0.2c1.1-1,1.2-2.6,0.2-3.7c-0.9-1-2.3-1.1-3.4-0.4l-0.7-0.8
			l1.9-1.7l-1.7-1.9l0.7-1l-1.6-1.8l2.6-2.3l-2.3-2.5c0.2-0.1,0.5-0.3,0.7-0.5c2.1-1.9,2.3-5.1,0.4-7.2c-1.9-2.1-5.1-2.3-7.2-0.4
			c-0.2,0.2-0.4,0.4-0.6,0.6l-9-10.1c0.2-0.1,0.5-0.3,0.7-0.5c1.6-1.4,2.1-3.6,1.4-5.4l3,3.4l0.8-0.7l6.2,7l-0.8,0.7l3.6,4l0.8-0.7
			l5.8,6.5l-0.8,0.7l3.6,4l0.8-0.7l0.4,0.4l2.7-2.4l-0.4-0.4l0.8-0.7l-3.6-4l-0.8,0.7l-5.8-6.5l0.8-0.7l-3.6-4l-0.8,0.7l-6.2-7
			l0.8-0.7l-3.6-4l-0.8,0.7l-4.8-5.4l0.8-0.7l-3.6-4l-0.8,0.7l-0.5-0.6l-2.7,2.4l0.5,0.6l-0.8,0.7l3.6,4l0.8-0.7l4.8,5.4l-0.6,0.5
			c-0.2-0.3-0.4-0.6-0.7-0.9c-1.9-2.1-5.1-2.3-7.2-0.4c-0.2,0.2-0.4,0.4-0.6,0.6l-2.5-2.8l-2.6,2.3l-1.7-1.9L129,542l-1.3-1.5
			l-1.5,1.3l-1-1.1c0.4-0.9,0.3-2.1-0.4-2.9c-0.9-1.1-2.6-1.2-3.7-0.2C120.1,538.6,120,540.3,121,541.3L121,541.3z"/>
		<path fill="#FFFFFF" d="M71.1,500.5c-0.5,1.3,0.1,1.1,0.5,2.2c0.3,1-0.3,1.5-0.4,2.5c-0.1,1.1,0.7,1.7,1,2.8
			c0.2,0.7-0.1,1.1,0,1.7c0.1,0.5,0.7,0.9,0.9,1.4c0.6,1.3,0,2.7,0.2,4.1c0.1,0.7,0.9,1.2,1,1.9c0.2,0.7-0.2,1.3-0.2,2
			c0.1,1.3,2,1.9,1.8,3.4c-0.2,1.8-1.4,1.5,0,3.3c0.8,1,0.8,2.1,1.5,3.1c0.8,1.1,2.2,0.5,2.6,2c0.3,1.1-0.1,2.2,1,3
			c0.6,0.4,1.2,0.3,1.6,0.9c0.4,0.4,0.3,1.1,0.5,1.6c0.6,1,1.6,1,2.4,1.8c1.7,1.5,3.4,2.4,5.1,3.8c0.5,0.4,0.5,0.6,1.1,0.9
			c0.6,0.3,0.7,0.2,1.3,0.7c0.8,0.7,1,1.8,1.7,2.6c0.5,0.5,1,0.3,1.5,0.6c0.7,0.4,0.5,0.5,0.9,1.1c0.6,0.8,1.1,1.6,2.2,1.6L72.1,499
			C72,499.2,71.3,499.9,71.1,500.5L71.1,500.5z"/>
		<path fill="#FFFFFF" d="M95.6,485.3c0.3,0.6,0.1,1.4-0.5,1.8c-0.6,0.3-1.4,0.1-1.8-0.5c-0.3-0.6-0.1-1.4,0.5-1.8
			C94.5,484.4,95.2,484.6,95.6,485.3L95.6,485.3z M111.9,496.1c0.6,1.2,0.2,2.7-1,3.3c-1.2,0.6-2.7,0.2-3.3-1
			c-0.6-1.2-0.2-2.7,1-3.3C109.8,494.5,111.3,494.9,111.9,496.1L111.9,496.1z M123.1,516.9c0.6,1.2,0.2,2.7-1,3.3s-2.7,0.2-3.3-1
			c-0.6-1.2-0.2-2.7,1-3.3C121,515.3,122.5,515.7,123.1,516.9L123.1,516.9z M122.9,536.7c0.3,0.6,0.1,1.4-0.5,1.8
			c-0.6,0.3-1.4,0.1-1.8-0.5c-0.3-0.5-0.2-1.1,0.2-1.5l0.6-0.3C122,535.9,122.6,536.2,122.9,536.7L122.9,536.7z M92.2,487.1
			c0.4,0.7,1,1.2,1.8,1.3l0.9,1.6l-1.8,1l0.2,0.4l-17.8,5c-0.4-0.8-1.4-1-2.1-0.6c-0.8,0.4-1.1,1.4-0.6,2.2l27.6,51.3
			c0.4,0.8,1.4,1.1,2.2,0.6c0.8-0.4,1.1-1.4,0.6-2.2l-0.3-0.6l13.6-12.1l0.4,0.8l2.3-1.2l0.6,1.1c-0.6,0.8-0.7,1.9-0.2,2.8
			c0.7,1.3,2.3,1.7,3.5,1.1c1.3-0.7,1.7-2.3,1-3.5c-0.6-1.1-2-1.6-3.2-1.2l-0.5-1l2.3-1.2l-1.2-2.2l0.9-0.8l-1.1-2.1l3.1-1.7l-1.6-3
			c0.3-0.1,0.5-0.2,0.8-0.3c2.5-1.3,3.4-4.4,2.1-6.9s-4.4-3.4-6.9-2.1c-0.2,0.1-0.5,0.3-0.7,0.5l-6.4-11.9c0.3-0.1,0.5-0.2,0.8-0.3
			c1.9-1,2.8-3,2.7-5l2.1,4l0.9-0.5l4.4,8.2l-0.9,0.5l2.5,4.7l0.9-0.5l4.1,7.7l-0.9,0.5l2.5,4.7l0.9-0.5l0.2,0.5l3.2-1.7l-0.3-0.5
			l0.9-0.5l-2.5-4.7l-0.9,0.5l-4.1-7.7l0.9-0.5l-2.5-4.7l-0.9,0.5l-4.4-8.2l0.9-0.5l-2.6-4.7l-0.9,0.5l-3.4-6.4l0.9-0.5l-2.6-4.7
			l-0.9,0.5l-0.4-0.7l-3.2,1.7l0.4,0.7l-0.9,0.5l2.5,4.7l0.9-0.5l3.4,6.4l-0.7,0.4c-0.1-0.4-0.2-0.7-0.4-1.1
			c-1.3-2.5-4.4-3.4-6.9-2.1c-0.2,0.1-0.5,0.3-0.7,0.5l-1.8-3.3l-3.1,1.6l-1.2-2.2l-0.8,0.2l-0.9-1.7l-1.8,0.9l-0.7-1.3
			c0.6-0.8,0.8-1.9,0.3-2.9c-0.7-1.3-2.3-1.7-3.5-1.1C91.9,484.3,91.5,485.9,92.2,487.1L92.2,487.1z"/>
		<path fill="#FFFFFF" d="M676.2,434.4c0,0-0.1-0.7-0.1-1.9c-0.1-1.2-0.1-2.9,0-5s0.3-4.5,0.8-7c0.3-1.3,0.5-2.6,0.9-3.9
			s0.8-2.6,1.4-3.9c0.5-1.3,1.2-2.6,1.8-3.8c0.4-0.6,0.7-1.2,1.1-1.8c0.4-0.5,0.8-1.1,1.2-1.6c0.8-1.1,1.7-2,2.5-2.8
			c0.9-0.8,1.7-1.6,2.6-2.2c0.4-0.3,0.8-0.6,1.2-0.9c0.4-0.2,0.8-0.4,1.2-0.7c0.7-0.4,1.4-0.8,2-1c1.1-0.5,1.8-0.7,1.8-0.7
			s-0.6,0.4-1.6,1c-0.5,0.3-1.1,0.7-1.7,1.2c-0.3,0.3-0.7,0.5-1,0.8s-0.7,0.6-1.1,1c-0.8,0.6-1.5,1.5-2.2,2.3
			c-0.7,0.9-1.5,1.8-2.2,2.8c-0.3,0.5-0.7,1-1,1.6s-0.6,1.1-0.9,1.7c-0.6,1.1-1.2,2.4-1.7,3.6c-2.1,4.9-3.2,10.2-3.8,14.2
			c-0.3,2-0.6,3.7-0.7,4.9C676.3,433.7,676.2,434.4,676.2,434.4L676.2,434.4z"/>
		<path fill="#FFFFFF" d="M682,435c0,0-0.1-0.7-0.1-1.9c-0.1-1.2-0.1-2.9,0-5s0.3-4.5,0.8-7c0.3-1.3,0.5-2.6,0.9-3.9
			s0.8-2.6,1.4-3.9c0.5-1.3,1.2-2.6,1.8-3.8c0.4-0.6,0.7-1.2,1.1-1.8c0.4-0.5,0.8-1.1,1.2-1.6c0.8-1.1,1.7-2,2.5-2.8
			c0.9-0.8,1.7-1.6,2.6-2.2c0.4-0.3,0.8-0.6,1.2-0.9c0.4-0.2,0.8-0.4,1.2-0.7c0.7-0.4,1.4-0.8,2-1c1.1-0.5,1.8-0.7,1.8-0.7
			s-0.6,0.4-1.6,1c-0.5,0.3-1.1,0.7-1.7,1.2c-0.3,0.2-0.7,0.5-1,0.8s-0.7,0.6-1.1,1c-0.8,0.6-1.5,1.5-2.2,2.3
			c-0.7,0.9-1.5,1.8-2.2,2.8c-0.3,0.5-0.7,1-1,1.6s-0.6,1.1-0.9,1.7c-0.6,1.1-1.2,2.4-1.7,3.6c-2.1,4.9-3.2,10.2-3.8,14.2
			c-0.3,2-0.6,3.7-0.7,4.9C682.1,434.3,682,435,682,435L682,435z"/>
		<path fill="#FFFFFF" d="M644.6,490.5c0,0-0.1-0.7-0.1-1.9c-0.1-1.2-0.1-2.9,0-5s0.3-4.5,0.8-7c0.3-1.3,0.5-2.6,0.9-3.9
			s0.8-2.6,1.4-3.9c0.5-1.3,1.2-2.6,1.8-3.8c0.4-0.6,0.7-1.2,1.1-1.8c0.4-0.5,0.8-1.1,1.2-1.6c0.8-1.1,1.7-2,2.5-2.8
			c0.9-0.8,1.7-1.6,2.6-2.2c0.4-0.3,0.8-0.6,1.2-0.9c0.4-0.2,0.8-0.4,1.2-0.7c0.7-0.4,1.4-0.8,2-1c1.1-0.5,1.8-0.7,1.8-0.7
			s-0.6,0.4-1.6,1c-0.5,0.3-1.1,0.7-1.7,1.2c-0.3,0.3-0.7,0.5-1,0.8s-0.7,0.6-1.1,1c-0.8,0.6-1.5,1.5-2.2,2.3
			c-0.7,0.9-1.5,1.8-2.2,2.8c-0.3,0.5-0.7,1-1,1.6s-0.6,1.1-0.9,1.7c-0.6,1.1-1.2,2.4-1.7,3.6c-2.1,4.9-3.2,10.2-3.8,14.2
			c-0.3,2-0.6,3.7-0.7,4.9C644.7,489.8,644.6,490.5,644.6,490.5L644.6,490.5z"/>
		<path fill="#FFFFFF" d="M650.3,491.1c0,0-0.1-0.7-0.1-1.9c-0.1-1.2-0.1-2.9,0-5s0.3-4.5,0.8-7c0.3-1.3,0.5-2.6,0.9-3.9
			s0.8-2.6,1.4-3.9c0.5-1.3,1.2-2.6,1.8-3.8c0.4-0.6,0.7-1.2,1.1-1.8c0.4-0.5,0.8-1.1,1.2-1.6c0.8-1.1,1.7-2,2.5-2.8
			c0.9-0.8,1.7-1.6,2.6-2.2c0.4-0.3,0.8-0.6,1.2-0.9c0.4-0.2,0.8-0.4,1.2-0.6c0.7-0.4,1.4-0.8,2-1c1.1-0.5,1.8-0.7,1.8-0.7
			s-0.6,0.4-1.6,1c-0.5,0.3-1.1,0.7-1.7,1.2c-0.3,0.2-0.7,0.5-1,0.8s-0.7,0.6-1.1,1c-0.8,0.6-1.5,1.5-2.2,2.3
			c-0.7,0.9-1.5,1.8-2.2,2.8c-0.3,0.5-0.7,1-1,1.6s-0.6,1.1-0.9,1.7c-0.6,1.1-1.2,2.4-1.7,3.6c-2.1,4.9-3.2,10.2-3.8,14.2
			c-0.3,2-0.6,3.7-0.7,4.9C650.4,490.4,650.3,491.1,650.3,491.1L650.3,491.1z"/>
		<path fill="#FFFFFF" d="M270.6,91.1l0.2,0.2c0.1,0.2,0,0.4-0.2,0.4h-0.2v0.1c0.1,0.3,0.3,0.4,0.6,0.3c0.3-0.1,0.6-0.3,0.4-0.9
			c-0.1-0.4-0.2-0.6-0.6-1.7C270.8,90.1,270.7,90.6,270.6,91.1L270.6,91.1z"/>
		<path fill="#FFFFFF" d="M278.9,91.5l0.4,0.2c0.1,0,0.3-0.2,0.3-0.7v-0.5C279.1,90.8,278.8,91.1,278.9,91.5L278.9,91.5z"/>
		<path fill="#FFFFFF" d="M265.8,90.6c-0.6,0.2-0.7,1.6-0.5,2.3c0.2,0.6,0.4,0.5,0.5,0.5c0.2-0.1,0.4-0.3,0.4-0.8l0,0l-0.1-1.8
			C266.2,90.7,266,90.6,265.8,90.6L265.8,90.6z"/>
		<path fill="#FFFFFF" d="M280.6,90.7c0.1,1.1-0.5,1.5-1,1.6c-0.4,0.1-0.9-0.1-1.1-0.6c-0.2-0.7,0.3-1,1-1.4V90
			c-0.2,0.4-0.5,0.6-0.8,0.7c-0.4,0.1-0.9,0-1-0.7c0-0.1-0.1-0.3-0.1-0.5l-0.1-2.5l1.1-0.3l0.2,2.6v0.2l0.3,0.3
			c0.3-0.1,0.4-0.4,0.4-0.8l-0.1-2.5l1.1-0.3L280.6,90.7L280.6,90.7z M276.3,87.9c-0.2,0.1-0.3,0.2-0.5,0.4l0.2,2.9l-1.1,0.3V91
			c-0.3,0.5-0.6,0.7-0.9,0.8c-0.4,0.1-0.9,0-1-0.7V91c-0.2,0.3-0.4,0.6-0.6,0.8c-0.2,0.4-0.7,0.7-1,0.8c-0.5,0.1-0.9,0-1.1-0.3
			c-0.3,0.6-0.7,0.8-0.9,0.8c-0.4,0.1-0.7,0-0.9-0.5c-0.2,0.7-0.7,0.9-1,0.9c-0.4,0.1-0.7,0-0.9-0.4c-0.1,0.4-0.4,0.8-0.9,1
			c-0.4,0.1-0.8,0-1.1-0.4c-0.2,0.7-0.6,0.9-0.9,0.9c-0.6,0.2-1-0.2-1.1-0.6c-0.1-0.5-0.1-1.5-0.2-2c-0.1-0.2-0.2-0.3-0.4-0.3
			c-0.3,0.1-0.4,0.4-0.4,0.8l0.1,2.5l-1.1,0.3l-0.2-3.9l1.1-0.3v0.4c0.2-0.4,0.5-0.6,0.7-0.6c0.5-0.1,0.9,0,1,0.6
			c0.2,0.6,0.1,1.6,0.2,2c0.1,0.2,0.2,0.3,0.4,0.2c0.3-0.1,0.3-0.3,0.4-0.6l0,0c-0.3-1-0.1-2.7,1.2-3.1c0.4-0.1,0.6,0,0.7,0.2l0,0
			l-0.1-1.8l1-0.4l0.2,4.2v0.2c0.1,0.2,0.2,0.2,0.4,0.2c0.3-0.1,0.4-0.4,0.4-0.8l0,0l-0.1-2.5L269,89l0.2,2.6v0.2
			c0.1,0.2,0.2,0.2,0.4,0.2l0.4,0l0,0c-0.1-0.3,0-0.6,0.2-0.8c0.2-0.8,0.3-1.6,0.3-2.4l1-0.4c0.6,1.9,0.8,2.1,0.9,2.6v0.3l0.4-0.5
			l-0.1-2.2l-0.2,0.1v-0.3l0.2-0.1l-0.1-1.1l1-0.4l0.1,1.2l0.4-0.1v0.3l-0.4,0.1l0.1,2.3v0.2c0.1,0.2,0.2,0.2,0.4,0.2
			c0.3-0.1,0.5-0.4,0.5-0.8l-0.1-2.5l1.1-0.3v0.5c0.2-0.3,0.4-0.6,0.8-0.7c0.3-0.1,0.6,0.1,0.7,0.4s0,0.6-0.4,0.7
			C276.5,88.4,276.5,87.9,276.3,87.9L276.3,87.9z M277.9,121.3c-2,0.6-4.5-0.6-5.3-3.6c-1.1-4.1,1.3-11.1,1.3-11.1s6,4.8,7.1,8.8
			C281.6,117.7,280.8,120.5,277.9,121.3L277.9,121.3z M258.9,96l-0.3-5.3c-0.6,0.4-0.8,1.1-0.6,1.9c0.1,0.4,0.2,0.4,0.2,0.5
			c-0.5,0.1-0.8,0-1-0.5c-0.3-1,0.8-2.3,2-2.6l0.3-0.1l0.3,5.8L258.9,96L258.9,96z M263.2,78.6c2-0.5,3,0.5,3.5,2.2
			c0.6,2.2,0.4,6-2.6,6.9c-1.2,0.3-2.2-0.1-2.7-1.7c-0.5-1.9-0.4-5.6,1.6-6.2c0.2-0.1,0.4-0.1,0.6-0.1c-0.9,0.9-1,4.1-0.5,5.9
			c0.2,0.8,0.6,1.3,1,1.1c1.2-0.3,1.6-3.5,1-5.8c-0.4-1.3-0.8-1.9-2-1.6c-1.7,0.5-3,2-2.5,3.8c0.1,0.4,0.3,0.5,0.3,0.6
			c-0.7,0.2-1.2,0.1-1.4-0.6C259,81.4,260.8,79.3,263.2,78.6L263.2,78.6z M269.1,88.2c0.1,0.3-0.1,0.7-0.4,0.7
			c-0.3,0.1-0.6-0.1-0.7-0.4s0.1-0.7,0.4-0.7C268.7,87.7,269,87.9,269.1,88.2L269.1,88.2z M267.8,84.4l-0.2-3.9l1.6-0.5l0.2,4.1
			l0.1,0.4c0.1,0.3,0.3,0.4,0.6,0.3c0.4-0.1,0.7-0.6,0.7-1.2v-0.1l-0.3-6.1l1.6-0.7l0.4,6.5v0.3c0.1,0.3,0.2,0.4,0.6,0.3
			c0.2-0.1,0.3-0.1,0.3-0.2c0.2,0.8-0.3,1.4-0.9,1.5c-0.6,0.2-1.1,0-1.5-0.7c-0.4,1-1.1,1.4-1.6,1.5c-0.7,0.2-1.3-0.1-1.6-1
			C267.9,84.9,267.8,84.7,267.8,84.4L267.8,84.4z M268.1,77.8c0.5-0.1,1,0.2,1.2,0.7c0.1,0.5-0.2,1-0.7,1.2c-0.5,0.1-1-0.2-1.2-0.7
			C267.3,78.4,267.6,77.9,268.1,77.8L268.1,77.8z M290.7,97.2c1.2-0.3,1.9-1.6,1.6-2.8c-0.3-1.2-1.6-1.9-2.8-1.6l-0.8,0.2L282,68.4
			l0.8-0.2c1.2-0.3,1.9-1.6,1.6-2.8c-0.3-1.2-1.6-1.9-2.8-1.6l-0.8,0.2l-36.9,10.1l-0.8,0.2c-1.2,0.3-1.9,1.6-1.6,2.8
			c0.3,1.2,1.6,1.9,2.8,1.6l0.8-0.2l6.8,24.7l-0.8,0.2c-1.2,0.3-1.9,1.6-1.6,2.8c0.3,1.2,1.6,1.9,2.8,1.6l0.8-0.2l6.9,25.2l-0.8,0.2
			c-1.2,0.3-1.9,1.6-1.6,2.8s1.6,1.9,2.7,1.6l38.5-10.6c1.2-0.3,1.9-1.6,1.6-2.8c-0.3-1.2-1.6-1.9-2.8-1.6l-0.8,0.2l-6.9-25.2
			L290.7,97.2L290.7,97.2z"/>
		<path fill="#FFFFFF" d="M180.4,623.5v-0.3l0.5-0.1l0.1,0.2h0.1c0.2-0.3,0.1-0.5-0.1-0.6c-0.3-0.2-0.6-0.2-0.9,0.2
			c-0.2,0.3-0.3,0.5-0.9,1.5C179.4,624,179.9,623.7,180.4,623.5L180.4,623.5z"/>
		<path fill="#FFFFFF" d="M175.4,616.7l-0.1-0.4c-0.1-0.1-0.4-0.1-0.7,0.2l-0.3,0.3C174.8,617,175.2,617,175.4,616.7L175.4,616.7z"
			/>
		<path fill="#FFFFFF" d="M182.9,627.5c0.5,0.4,1.7-0.5,2.1-1.1c0.3-0.5,0.1-0.6,0-0.7c-0.2-0.1-0.6-0.1-0.9,0.1l0,0l-1.3,1.2
			C182.8,627.2,182.8,627.3,182.9,627.5L182.9,627.5z"/>
		<path fill="#FFFFFF" d="M173.7,615.9c0.8-0.7,1.5-0.5,1.9-0.2s0.5,0.8,0.2,1.2c-0.4,0.6-1,0.4-1.7,0.2l-0.3,0.2
			c0.5-0.1,0.8,0,1,0.2c0.4,0.3,0.5,0.7,0.1,1.2l-0.3,0.4l-1.8,1.7l-0.9-0.6l2-1.8l0.1-0.1v-0.4c-0.2-0.2-0.6-0.1-0.9,0.2l-1.9,1.7
			l-0.9-0.6L173.7,615.9L173.7,615.9z M174.3,621c0.2,0.1,0.4,0.1,0.6,0.1l2.2-2l0.9,0.6l-0.3,0.3c0.6-0.1,1,0.1,1.2,0.2
			c0.4,0.3,0.5,0.7,0.1,1.2l-0.1,0.1c0.4,0,0.7,0,1,0c0.5-0.1,0.9,0.1,1.2,0.3c0.4,0.3,0.6,0.7,0.5,1c0.6-0.1,1,0,1.2,0.2
			c0.3,0.2,0.4,0.6,0.2,1c0.7-0.2,1.1,0,1.3,0.2c0.3,0.2,0.4,0.6,0.2,1c0.4-0.2,0.9-0.2,1.3,0.1c0.3,0.2,0.5,0.6,0.4,1.1
			c0.6-0.3,1-0.1,1.3,0.1c0.5,0.4,0.5,0.9,0.2,1.2c-0.3,0.4-1.1,1-1.4,1.4c-0.1,0.2-0.2,0.4,0,0.5c0.2,0.2,0.6,0,0.9-0.2l1.8-1.7
			l0.9,0.6l-2.9,2.6l-0.9-0.6l0.3-0.3c-0.5,0.1-0.8,0-1-0.2c-0.4-0.3-0.5-0.7-0.2-1.2c0.4-0.5,1.2-1,1.4-1.4
			c0.1-0.2,0.1-0.3-0.1-0.4c-0.2-0.2-0.4-0.1-0.7,0.1l0,0c-0.6,0.8-2.1,1.8-3.1,1c-0.4-0.3-0.4-0.5-0.3-0.7l0,0l-1.3,1.2l-1-0.5
			l3.1-2.8l0.2-0.2l-0.1-0.4c-0.2-0.2-0.6-0.1-0.9,0.2l0,0l-1.8,1.7l-0.9-0.6l2-1.8l0.2-0.2l-0.1-0.4c-0.1-0.1-0.3-0.1-0.5-0.1l0,0
			c-0.2,0.3-0.5,0.4-0.7,0.3c-0.8,0.4-1.4,0.8-2.1,1.3l-1-0.5c1.1-1.6,1.2-1.9,1.5-2.3l0.2-0.2c-0.2,0-0.5,0-0.7,0l-1.6,1.5l0.2,0.1
			l-0.2,0.2l-0.2-0.1l-0.8,0.7l-1-0.5l0.9-0.8l-0.4-0.3l0.2-0.2l0.4,0.3l1.7-1.6l0.2-0.2l-0.1-0.4c-0.2-0.2-0.6-0.1-0.9,0.1
			l-1.8,1.7l-0.9-0.6l0.4-0.3c-0.4,0-0.7,0.1-1-0.2c-0.3-0.2-0.3-0.5-0.1-0.8c0.2-0.2,0.5-0.3,0.8-0.1
			C174.6,620.6,174.1,620.9,174.3,621L174.3,621z M199.3,598.9c1.7,1.2,2.3,3.9,0.5,6.4c-2.5,3.4-9.4,5.9-9.4,5.9s0-7.7,2.4-11.1
			C194.2,598.2,196.9,597.1,199.3,598.9L199.3,598.9z M191.4,629.5l-3.9,3.5c0.7,0.2,1.4-0.1,1.8-0.7c0.2-0.3,0.2-0.4,0.2-0.5
			c0.4,0.3,0.6,0.6,0.2,1.1c-0.6,0.8-2.3,0.8-3.3,0l-0.2-0.2l4.3-3.9L191.4,629.5L191.4,629.5z M175.2,637c-1.7-1.2-1.5-2.7-0.5-4.1
			c1.3-1.9,4.5-4.1,7-2.2c1,0.7,1.3,1.8,0.3,3.2c-1.1,1.6-4.1,3.9-5.9,2.6c-0.2-0.1-0.3-0.3-0.4-0.4c1.3,0.1,3.8-1.8,4.9-3.3
			c0.5-0.7,0.6-1.2,0.2-1.5c-1-0.7-3.8,1-5.2,2.9c-0.8,1.1-1,1.8,0,2.6c1.5,1.1,3.4,1.1,4.5-0.5c0.3-0.4,0.2-0.5,0.3-0.6
			c0.6,0.4,0.8,0.9,0.4,1.5C180,638.5,177.2,638.5,175.2,637L175.2,637z M179,626.4c0.2-0.3,0.6-0.3,0.8-0.1
			c0.3,0.2,0.3,0.6,0.1,0.8c-0.2,0.3-0.6,0.3-0.8,0.1C178.9,627.1,178.8,626.7,179,626.4L179,626.4z M176.8,629.8l-2.9,2.6l-1.4-1
			l3-2.8l0.3-0.3c0.2-0.3,0.1-0.4-0.1-0.6c-0.4-0.3-0.9-0.2-1.4,0.2l-0.1,0.1l-4.5,4.1l-1.6-0.8l4.9-4.4l0.2-0.3
			c0.2-0.2,0.2-0.5-0.1-0.7l-0.4-0.2c0.5-0.6,1.3-0.6,1.8-0.2c0.5,0.4,0.7,0.9,0.4,1.6c1-0.3,1.8,0,2.2,0.3c0.6,0.4,0.8,1.1,0.2,1.9
			C177.2,629.4,177,629.6,176.8,629.8L176.8,629.8z M171.5,633.8c-0.4-0.3-0.5-0.9-0.2-1.3c0.3-0.4,0.9-0.5,1.3-0.2
			c0.4,0.3,0.5,0.9,0.2,1.3C172.5,634,171.9,634.1,171.5,633.8L171.5,633.8z M172.4,604c-1-0.7-2.4-0.5-3.1,0.5
			c-0.7,1-0.5,2.4,0.5,3.1l0.7,0.5l-15,20.8l-0.7-0.5c-1-0.7-2.4-0.5-3.1,0.5c-0.7,1-0.5,2.4,0.5,3.1l0.7,0.5l31,22.4l0.7,0.5
			c1,0.7,2.4,0.5,3.1-0.5c0.7-1,0.5-2.4-0.5-3.1l-0.7-0.5l15-20.8l0.7,0.5c1,0.7,2.4,0.5,3.1-0.5c0.7-1,0.5-2.4-0.5-3.1l-0.7-0.5
			l15.3-21.2l0.7,0.5c1,0.7,2.4,0.5,3.1-0.5c0.7-1,0.5-2.4-0.5-3.1l-32.3-23.4c-1-0.7-2.4-0.5-3.1,0.5c-0.7,1-0.5,2.4,0.5,3.1
			l0.7,0.5l-15.3,21.2L172.4,604L172.4,604z"/>
		<path fill="#FFFFFF" d="M112.2,286.6c-1,3-4.2,4.5-7.2,3.5c-2.9-1-4.5-4.2-3.5-7.2s4.2-4.5,7.2-3.5
			C111.7,280.5,113.2,283.7,112.2,286.6L112.2,286.6z M97.7,281.7c-1.7,5.1,1,10.6,6.1,12.3c5.1,1.7,10.6-1,12.3-6.1
			c1.7-5.1-1-10.6-6.1-12.3C104.9,273.9,99.4,276.6,97.7,281.7L97.7,281.7z"/>
		<path fill="#FFFFFF" d="M122.8,248.1c-1.3,3.9-5.6,6.1-9.6,4.7c-3.9-1.3-6.1-5.6-4.7-9.6c1.3-3.9,5.6-6.1,9.6-4.7
			S124.2,244.1,122.8,248.1L122.8,248.1z M122.1,230.7L120,230l-0.3,1c-0.3-0.1-0.5-0.1-0.8-0.2l0.1-1l-2.3-0.3l-0.1,1
			c-0.2,0-0.5,0-0.7,0l-0.1-1l-2.3,0.2l0.1,1l-0.4,0.1l-0.2-0.9l-2.2,0.6l0.2,0.9c-0.3,0.1-0.5,0.2-0.8,0.3l-0.4-0.8l-2,1l0.4,0.8
			c-0.2,0.1-0.5,0.3-0.7,0.4l-0.5-0.7l-1.8,1.4l0.5,0.7c-0.2,0.2-0.4,0.4-0.6,0.5l-0.7-0.6l-1.5,1.7l0.7,0.6l-0.3,0.4l-0.8-0.4
			l-1.2,2l0.8,0.4c-0.1,0.3-0.3,0.5-0.4,0.8l-0.8-0.3l-0.7,2.2l0.8,0.3c-0.1,0.2-0.1,0.4-0.2,0.7l-0.9-0.1l-0.3,2.3l0.9,0.1
			c0,0.3,0,0.6,0,1l-0.9,0.1l0.2,2.3l0.9-0.1c0,0.2,0.1,0.4,0.1,0.6l-0.9,0.2l0.6,2.2l0.9-0.2c0.1,0.2,0.2,0.4,0.3,0.7l-0.8,0.4l1,2
			l0.8-0.4l0.1,0.3l-0.8,0.5l1.3,1.8l0.8-0.6l0.4,0.4l-0.7,0.7l1.7,1.6l0.7-0.7c0.2,0.2,0.4,0.3,0.6,0.5l-0.5,0.8l1.9,1.2l0.5-0.8
			c0.4,0.2,0.7,0.3,1.1,0.5l-0.3,1l2.2,0.7l0.3-1c0.3,0.1,0.5,0.1,0.8,0.2l-0.1,1l2.3,0.3l0.1-1.1c0.2,0,0.5,0,0.7,0l0.1,1.1
			l2.3-0.2l-0.1-1.1l0.4-0.1l0.3,1.1l2.2-0.6l-0.3-1.1c0.3-0.1,0.5-0.2,0.8-0.3l0.5,1l2-1l-0.5-1c0.3-0.2,0.5-0.3,0.8-0.5l0.7,0.9
			l1.8-1.4l-0.7-0.9l0.3-0.3l0.9,0.8l1.5-1.7l-0.9-0.8l0.3-0.4l1,0.6l1.2-2l-1-0.6c0.1-0.2,0.2-0.5,0.3-0.8l1.1,0.4l0.7-2.2
			l-1.1-0.4c0.1-0.2,0.1-0.4,0.2-0.6l1.2,0.2l0.3-2.3l-1.2-0.2c0-0.3,0-0.6,0-0.9l1.2-0.1l-0.2-2.3l-1.2,0.1c0-0.2-0.1-0.4-0.1-0.5
			l1.1-0.3l-0.6-2.2l-1.1,0.3c-0.1-0.2-0.1-0.4-0.2-0.6l1-0.5l-1-2l-1,0.5l-0.1-0.2l0.9-0.7l-1.3-1.8l-0.9,0.7l-0.4-0.4l0.8-0.8
			l-1.7-1.6l-0.7,0.8c-0.2-0.2-0.4-0.3-0.6-0.5l0.6-0.9l-1.9-1.2l-0.6,0.9c-0.4-0.2-0.7-0.4-1.1-0.5L122.1,230.7L122.1,230.7z"/>
		<path fill="#FFFFFF" d="M116.6,242.9c1.5,0.5,2.3,2.1,1.8,3.6s-2.1,2.3-3.6,1.8s-2.3-2.1-1.8-3.6S115.1,242.4,116.6,242.9
			L116.6,242.9z"/>
		<path fill="#FFFFFF" d="M111.2,243.3c0.4,0.1,0.6,0.6,0.5,1s-0.6,0.6-1,0.5s-0.6-0.6-0.5-1C110.3,243.4,110.8,243.2,111.2,243.3
			L111.2,243.3z"/>
		<path fill="#FFFFFF" d="M120.8,246.6c0.4,0.1,0.6,0.6,0.5,1s-0.6,0.6-1,0.5s-0.6-0.6-0.5-1C120,246.7,120.4,246.4,120.8,246.6
			L120.8,246.6z"/>
		<path fill="#FFFFFF" d="M118.1,241.1c-0.1,0.4-0.6,0.6-1,0.5s-0.6-0.6-0.5-1s0.6-0.6,1-0.5C118.1,240.2,118.3,240.7,118.1,241.1
			L118.1,241.1z"/>
		<path fill="#FFFFFF" d="M114.8,250.7c-0.1,0.4-0.6,0.6-1,0.5s-0.6-0.6-0.5-1s0.6-0.6,1-0.5C114.8,249.9,115,250.3,114.8,250.7
			L114.8,250.7z"/>
		<path fill="#FFFFFF" d="M114.2,240.7c0.2,0.4,0,0.8-0.4,1s-0.8,0-1-0.3c-0.2-0.4,0-0.8,0.3-1C113.5,240.2,114,240.4,114.2,240.7
			L114.2,240.7z"/>
		<path fill="#FFFFFF" d="M118.7,249.9c0.2,0.4,0,0.8-0.4,1s-0.8,0-1-0.3c-0.2-0.4,0-0.8,0.4-1S118.5,249.5,118.7,249.9L118.7,249.9
			z"/>
		<path fill="#FFFFFF" d="M110.8,247.2c0.4-0.2,0.8,0,1,0.3c0.2,0.4,0,0.8-0.4,1s-0.8,0-1-0.3C110.3,247.9,110.5,247.4,110.8,247.2
			L110.8,247.2z"/>
		<path fill="#FFFFFF" d="M120,242.7c0.4-0.2,0.8,0,1,0.3c0.2,0.4,0,0.8-0.3,1c-0.4,0.2-0.8,0-1-0.4
			C119.5,243.4,119.6,242.9,120,242.7L120,242.7z"/>
		<polygon fill="#FFFFFF" points="30.4,282.3 32.4,276.6 99.2,299.3 97.3,305 		"/>
		<polygon fill="#FFFFFF" points="48.8,292.8 92.4,307.6 83.1,335.2 85.9,336.2 95.3,308.6 96.1,308.9 97.1,306 49.8,290 		"/>
		<path fill="#FFFFFF" d="M95.6,239.6c0.5,0.2,0.8,0.8,0.6,1.4l-11.3,33.2c-0.2,0.6-0.8,0.9-1.3,0.8l-31.8-17.5
			c-2.4-2.6-3.3-5-2-8.9l7.1-20.9c0.2-0.6,0.8-0.9,1.3-0.8L95.6,239.6L95.6,239.6z M92.4,217.8l-4.9,14.5l-31.2-10.6
			c-0.7-0.2-1.4,0.2-1.7,1l-9,26.4C43.9,254,45,257,48,260.2l37.8,21l-3.2,9.3c-0.2,0.7,0.1,1.5,0.9,1.7l15,5.1
			c0.7,0.2,1.5-0.1,1.7-0.9l0.7-2c-4.4-2.7-6.5-8.2-4.8-13.3c1.7-5.1,6.7-8.2,11.9-7.6l3.6-10.7c-0.7-0.1-1.3-0.3-2-0.5
			c-9.1-3.1-14-13-10.9-22.1s13-14,22.1-10.9c0.7,0.2,1.3,0.5,1.9,0.8l0.6-1.7c0.2-0.7-0.1-1.5-0.9-1.7l-13.4-4.5l-1.6-0.6L94,217
			C93.4,216.7,92.6,217.1,92.4,217.8L92.4,217.8z"/>
		<path fill="#FFFFFF" d="M406.9,640.7c3.1-0.2,5.8,2.1,6,5.2c0.2,3.1-2.1,5.8-5.2,6s-5.8-2.1-6-5.2
			C401.4,643.7,403.8,641,406.9,640.7L406.9,640.7z M408,656.1c5.4-0.4,9.4-5,9-10.4s-5-9.4-10.4-9s-9.4,5-9,10.4
			C398,652.4,402.6,656.4,408,656.1L408,656.1z"/>
		<path fill="#FFFFFF" d="M367.3,646c4.2-0.3,7.8,2.8,8.1,7c0.3,4.2-2.8,7.8-7,8.1s-7.8-2.8-8.1-7C360,649.9,363.1,646.3,367.3,646
			L367.3,646z M351.5,653.4l0.2,2.3l1-0.1c0,0.3,0.1,0.6,0.1,0.8l-1,0.3l0.6,2.2l1-0.3c0.1,0.2,0.2,0.5,0.3,0.7l-0.9,0.4l1,2
			l0.9-0.4l0.2,0.4l-0.8,0.6l1.4,1.8l0.7-0.6c0.2,0.2,0.4,0.4,0.6,0.6l-0.6,0.7l1.7,1.5l0.6-0.7c0.2,0.2,0.4,0.3,0.7,0.5l-0.4,0.8
			l2,1.1l0.4-0.7c0.2,0.1,0.5,0.2,0.7,0.3l-0.3,0.9l2.2,0.7l0.3-0.9l0.4,0.1l-0.1,0.9l2.3,0.3l0.1-0.9c0.3,0,0.6,0,0.9,0l0.1,0.9
			l2.3-0.2l-0.1-0.9c0.2,0,0.5-0.1,0.7-0.1l0.2,0.8l2.2-0.6l-0.2-0.8c0.3-0.1,0.6-0.2,0.9-0.3l0.4,0.8l2-1l-0.4-0.8l0.5-0.3l0.6,0.7
			l1.8-1.4l-0.6-0.7l0.5-0.5l0.7,0.6l1.5-1.7l-0.7-0.6l0.2-0.2l0.8,0.5l1.2-1.9l-0.8-0.5l0.2-0.5l0.9,0.3l0.8-2.1l-0.9-0.3
			c0.1-0.3,0.1-0.5,0.2-0.8l1,0.2l0.4-2.2l-1-0.2c0-0.4,0-0.8,0-1.2l1-0.1l-0.2-2.3l-1,0.1c0-0.3-0.1-0.6-0.2-0.8l1-0.3l-0.6-2.2
			l-1,0.3c-0.1-0.2-0.2-0.4-0.3-0.7l1-0.5l-1-2l-1,0.5l-0.2-0.3l0.9-0.7l-1.4-1.8l-0.9,0.7c-0.2-0.2-0.4-0.4-0.6-0.6l0.7-0.9
			l-1.7-1.5l-0.8,0.9c-0.2-0.2-0.5-0.3-0.7-0.5l0.5-1l-2-1.1l-0.5,1l-0.4-0.2l0.4-1.2l-2.2-0.7l-0.4,1.2c-0.2,0-0.4-0.1-0.5-0.1
			l0.2-1.2l-2.3-0.3l-0.2,1.2c-0.3,0-0.6,0-0.8,0l-0.1-1.2l-2.3,0.2l0.1,1.2c-0.2,0-0.4,0.1-0.6,0.1l-0.3-1.1l-2.2,0.6l0.3,1.1
			c-0.3,0.1-0.6,0.2-0.8,0.3l-0.5-1l-2,1l0.5,1l-0.5,0.3l-0.7-0.9l-1.8,1.4l0.7,0.9l-0.5,0.4l-0.9-0.8l-1.5,1.7l0.9,0.7l-0.2,0.2
			l-1-0.6l-1.2,1.9l1,0.6l-0.2,0.5l-1-0.4l-0.8,2.1l1,0.4c-0.1,0.3-0.1,0.5-0.2,0.8l-1.1-0.2l-0.4,2.2l1,0.2c0,0.4-0.1,0.8-0.1,1.2
			L351.5,653.4L351.5,653.4z"/>
		<path fill="#FFFFFF" d="M365,653.7c-0.1-1.6,1.1-2.9,2.6-3.1c1.6-0.1,2.9,1.1,3.1,2.6c0.1,1.6-1.1,2.9-2.6,3.1
			C366.4,656.5,365.1,655.3,365,653.7L365,653.7z"/>
		<path fill="#FFFFFF" d="M367.4,658.6c0-0.4,0.3-0.8,0.7-0.8c0.4,0,0.8,0.3,0.8,0.7s-0.3,0.8-0.7,0.8
			C367.8,659.3,367.4,659,367.4,658.6L367.4,658.6z"/>
		<path fill="#FFFFFF" d="M366.7,648.4c0-0.4,0.3-0.8,0.7-0.8c0.4,0,0.8,0.3,0.8,0.7s-0.3,0.8-0.7,0.8
			C367.1,649.1,366.7,648.8,366.7,648.4L366.7,648.4z"/>
		<path fill="#FFFFFF" d="M362.6,653c0.4,0,0.8,0.3,0.8,0.7s-0.3,0.8-0.7,0.8c-0.4,0-0.8-0.3-0.8-0.7
			C361.9,653.4,362.2,653.1,362.6,653L362.6,653z"/>
		<path fill="#FFFFFF" d="M372.8,652.3c0.4,0,0.8,0.3,0.8,0.7s-0.3,0.8-0.7,0.8c-0.4,0-0.8-0.3-0.8-0.7
			C372.1,652.7,372.4,652.3,372.8,652.3L372.8,652.3z"/>
		<path fill="#FFFFFF" d="M363.9,656.8c0.3-0.3,0.8-0.4,1.1-0.1c0.3,0.3,0.4,0.8,0.1,1.1s-0.8,0.4-1.1,0.1
			C363.6,657.6,363.6,657.1,363.9,656.8L363.9,656.8z"/>
		<path fill="#FFFFFF" d="M370.6,649.1c0.3-0.3,0.8-0.4,1.1-0.1c0.3,0.3,0.4,0.8,0.1,1.1s-0.8,0.4-1.1,0.1
			C370.3,649.9,370.3,649.4,370.6,649.1L370.6,649.1z"/>
		<path fill="#FFFFFF" d="M371.2,657.3c-0.3-0.3-0.4-0.8-0.1-1.1s0.8-0.4,1.1-0.1c0.3,0.3,0.3,0.8,0.1,1.1
			C372,657.6,371.5,657.6,371.2,657.3L371.2,657.3z"/>
		<path fill="#FFFFFF" d="M363.4,650.7c-0.3-0.3-0.4-0.8-0.1-1.1s0.8-0.4,1.1-0.1c0.3,0.3,0.4,0.8,0.1,1.1S363.7,650.9,363.4,650.7
			L363.4,650.7z"/>
		<polygon fill="#FFFFFF" points="434.7,717.8 428.7,718.2 423.6,647.8 429.6,647.3 		"/>
		<polygon fill="#FFFFFF" points="437.3,696.7 434,650.8 463,648.7 462.8,645.7 433.7,647.8 433.7,646.9 430.7,647.2 434.3,696.9 		
			"/>
		<path fill="#FFFFFF" d="M370.1,674.4c0-0.6,0.4-1.1,1.1-1.1l35-2.5c0.6,0,1.2,0.4,1.2,0.9l-3.8,36.1c-1.4,3.2-3.3,5-7.4,5.3
			l-22,1.6c-0.6,0-1.2-0.4-1.2-0.9L370.1,674.4L370.1,674.4z M351.2,685.8l15.3-1.1l2.4,32.9c0.1,0.7,0.7,1.2,1.5,1.2l27.8-2
			c5.2-0.4,7.5-2.5,9.3-6.5l4.7-43l9.8-0.7c0.7-0.1,1.3-0.7,1.3-1.5l-1.1-15.8c-0.1-0.7-0.7-1.3-1.5-1.3l-2.1,0.2
			c-0.8,5.1-5,9.2-10.4,9.6c-5.4,0.4-10.1-3-11.7-8l-11.3,0.8c0.1,0.7,0.2,1.4,0.3,2.1c0.7,9.6-6.5,18-16.1,18.6
			c-9.6,0.7-18-6.5-18.6-16.1c-0.1-0.7,0-1.4,0-2.1l-1.8,0.1c-0.8,0.1-1.3,0.7-1.3,1.5l1,14.1l0.1,1.7l1,14.1
			C349.8,685.3,350.5,685.9,351.2,685.8L351.2,685.8z"/>
	</g>
</g>
<g id="Blockchain">
	<g>
		<path fill="#FFFFFF" d="M217.6,328.8c1.6-0.3,4-0.6,6.6-0.6c3.6,0,5.9,0.6,7.6,2c1.4,1.1,2.3,2.7,2.3,4.9c0,2.7-1.8,5-4.7,6.1v0.1
			c2.6,0.7,5.7,2.8,5.7,6.9c0,2.4-0.9,4.2-2.4,5.5c-1.9,1.8-5.1,2.6-9.6,2.6c-2.5,0-4.4-0.2-5.6-0.3L217.6,328.8L217.6,328.8z
			 M221.2,340.2h3.3c3.8,0,6-2,6-4.6c0-3.2-2.5-4.5-6.1-4.5c-1.6,0-2.6,0.1-3.2,0.2V340.2z M221.2,353.4c0.7,0.1,1.7,0.2,3,0.2
			c3.7,0,7.1-1.4,7.1-5.4c0-3.8-3.3-5.3-7.2-5.3h-3L221.2,353.4L221.2,353.4z"/>
		<path fill="#FFFFFF" d="M246.9,328.5h3.6v24.6h11.9v3h-15.5V328.5z"/>
		<path fill="#FFFFFF" d="M295.4,342c0,9.5-5.8,14.6-12.9,14.6c-7.3,0-12.5-5.7-12.5-14c0-8.8,5.5-14.5,12.9-14.5
			C290.5,328,295.4,333.8,295.4,342z M273.9,342.5c0,5.9,3.2,11.2,8.9,11.2c5.7,0,8.9-5.2,8.9-11.5c0-5.5-2.9-11.2-8.9-11.2
			C276.8,330.9,273.9,336.4,273.9,342.5z"/>
		<path fill="#FFFFFF" d="M326.4,355.2c-1.3,0.7-4,1.3-7.3,1.3c-7.8,0-13.7-4.9-13.7-14c0-8.7,5.9-14.5,14.5-14.5
			c3.5,0,5.6,0.7,6.6,1.2l-0.9,2.9c-1.4-0.7-3.3-1.1-5.6-1.1c-6.5,0-10.8,4.1-10.8,11.4c0,6.8,3.9,11.1,10.7,11.1
			c2.2,0,4.4-0.5,5.9-1.1L326.4,355.2z"/>
		<path fill="#FFFFFF" d="M337.9,328.5h3.6v13.3h0.1c0.7-1.1,1.5-2.1,2.2-3l8.5-10.4h4.5l-10.1,11.7l10.8,15.9h-4.2l-9.2-13.6
			l-2.6,3v10.5h-3.6L337.9,328.5L337.9,328.5z"/>
		<path fill="#FFFFFF" d="M385.9,355.2c-1.3,0.7-4,1.3-7.3,1.3c-7.8,0-13.7-4.9-13.7-14c0-8.7,5.9-14.5,14.5-14.5
			c3.5,0,5.6,0.7,6.6,1.2l-0.9,2.9c-1.4-0.7-3.3-1.1-5.6-1.1c-6.5,0-10.8,4.1-10.8,11.4c0,6.8,3.9,11.1,10.7,11.1
			c2.2,0,4.4-0.5,5.9-1.1L385.9,355.2z"/>
		<path fill="#FFFFFF" d="M400.9,328.5V340h13.4v-11.6h3.6V356h-3.6v-13h-13.4v13h-3.6v-27.6h3.6V328.5z"/>
		<path fill="#FFFFFF" d="M435.6,347.4l-2.9,8.7H429l9.4-27.6h4.3l9.5,27.6h-3.8l-3-8.7H435.6z M444.7,344.6l-2.7-8
			c-0.6-1.8-1-3.4-1.4-5h-0.1c-0.4,1.6-0.9,3.3-1.4,5l-2.7,8H444.7z"/>
		<path fill="#FFFFFF" d="M466.9,328.5v27.6h-3.6v-27.6H466.9z"/>
		<path fill="#FFFFFF" d="M480.1,356.1v-27.6h3.9l8.9,14c2.1,3.2,3.7,6.2,5,9h0.1c-0.3-3.7-0.4-7.1-0.4-11.4v-11.6h3.4v27.6h-3.6
			l-8.8-14c-1.9-3.1-3.8-6.2-5.2-9.2h-0.1c0.2,3.5,0.3,6.8,0.3,11.4v11.8L480.1,356.1L480.1,356.1z"/>
	</g>
</g>
<g id="Industrial">
	<g>
		<path fill="#FFFFFF" d="M217,407v-35.7h7.3V407H217z"/>
		<path fill="#FFFFFF" d="M263.5,407h-9.3l-15-27H239c0.3,4.8,0.4,8.2,0.4,10.2V407h-6.5v-35.7h9.2L257,398h0.2
			c-0.2-4.6-0.4-7.9-0.4-9.8v-16.9h6.6L263.5,407L263.5,407z"/>
		<path fill="#FFFFFF" d="M300.7,388.8c0,5.9-1.6,10.4-4.8,13.5s-7.9,4.7-14,4.7h-9.7v-35.7H283c5.6,0,10,1.5,13.1,4.6
			C299.1,379,300.7,383.3,300.7,388.8z M293.1,389c0-7.7-3.3-11.5-9.8-11.5h-3.9v23.2h3.1C289.6,400.8,293.1,396.8,293.1,389z"/>
		<path fill="#FFFFFF" d="M335.8,371.3v23.1c0,2.6-0.6,4.9-1.7,6.9s-2.8,3.5-4.9,4.6s-4.7,1.6-7.6,1.6c-4.4,0-7.9-1.2-10.3-3.5
			c-2.4-2.4-3.7-5.6-3.7-9.7v-23h7.3v21.9c0,2.8,0.5,4.8,1.6,6.1c1.1,1.3,2.8,1.9,5.3,1.9c2.4,0,4.1-0.6,5.2-1.9s1.6-3.3,1.6-6.1
			v-21.8h7.2V371.3z"/>
		<path fill="#FFFFFF" d="M364.6,397.1c0,3.2-1.1,5.8-3.4,7.6s-5.3,2.8-9.3,2.8c-3.7,0-6.9-0.7-9.7-2.1v-7c2.3,1.1,4.3,1.8,5.9,2.3
			c1.6,0.4,3.1,0.7,4.4,0.7c1.6,0,2.8-0.3,3.7-1c0.9-0.6,1.3-1.6,1.3-2.8c0-0.7-0.2-1.3-0.6-1.9c-0.4-0.5-0.9-1.1-1.7-1.6
			c-0.7-0.5-2.2-1.3-4.5-2.4c-2.1-1-3.7-2-4.7-3c-1.1-0.9-1.9-2-2.5-3.3s-0.9-2.7-0.9-4.4c0-3.2,1-5.6,3.1-7.4s4.9-2.7,8.6-2.7
			c1.8,0,3.5,0.2,5.1,0.7c1.6,0.4,3.3,1.1,5.1,1.9l-2.4,5.9c-1.8-0.8-3.4-1.3-4.6-1.6c-1.2-0.3-2.4-0.5-3.5-0.5
			c-1.4,0-2.4,0.3-3.2,1c-0.7,0.7-1.1,1.5-1.1,2.6c0,0.7,0.1,1.2,0.4,1.7s0.8,1,1.4,1.4c0.7,0.5,2.2,1.3,4.6,2.5
			c3.2,1.6,5.4,3.2,6.6,4.8C364,392.8,364.6,394.8,364.6,397.1z"/>
		<path fill="#FFFFFF" d="M384.1,407h-7.3v-29.4h-9.3v-6.3h26v6.3h-9.3V407H384.1z"/>
		<path fill="#FFFFFF" d="M406,393.3V407h-7.3v-35.7h10c4.7,0,8.1,0.9,10.4,2.6c2.2,1.8,3.4,4.4,3.4,8c0,2.1-0.6,4-1.7,5.6
			s-2.7,2.9-4.7,3.8c5.2,8,8.6,13.2,10.1,15.6h-8.1l-8.2-13.7H406V393.3z M406,387.2h2.4c2.3,0,4-0.4,5.1-1.2
			c1.1-0.8,1.6-2.1,1.6-3.8c0-1.7-0.6-2.9-1.7-3.6s-2.9-1.1-5.2-1.1H406V387.2z"/>
		<path fill="#FFFFFF" d="M430.5,407v-35.7h7.3V407H430.5z"/>
		<path fill="#FFFFFF" d="M467.6,407l-2.5-8.5h-12.5L450,407h-7.9l12.1-35.8h8.9l12.2,35.8H467.6z M463.3,392.2
			c-2.3-7.7-3.6-12.1-3.9-13.1s-0.5-1.8-0.6-2.4c-0.5,2.1-2,7.2-4.4,15.5H463.3z"/>
		<path fill="#FFFFFF" d="M479.7,407v-35.7h7.3v29.4h14v6.3L479.7,407L479.7,407z"/>
	</g>
</g>
<g id="Alliance">
	<g>
		<path fill="#FFFFFF" d="M294.8,435.3l-2.5-6.4h-8l-2.5,6.4h-2.4l7.9-20.1h2l7.9,20.1H294.8z M291.6,426.8l-2.3-6.2
			c-0.3-0.8-0.6-1.7-0.9-2.9c-0.2,0.9-0.5,1.8-0.9,2.9l-2.4,6.2H291.6z"/>
		<path fill="#FFFFFF" d="M304.4,435.3v-20h2.3v17.9h8.8v2.1H304.4z"/>
		<path fill="#FFFFFF" d="M323.4,435.3v-20h2.3v17.9h8.8v2.1H323.4z"/>
		<path fill="#FFFFFF" d="M342.4,435.3v-20h2.3v20H342.4z"/>
		<path fill="#FFFFFF" d="M367.2,435.3l-2.5-6.4h-8l-2.5,6.4h-2.4l7.9-20.1h2l7.9,20.1H367.2z M364,426.8l-2.3-6.2
			c-0.3-0.8-0.6-1.7-0.9-2.9c-0.2,0.9-0.5,1.8-0.9,2.9l-2.4,6.2H364z"/>
		<path fill="#FFFFFF" d="M392.4,435.3h-2.7l-10.9-16.8h-0.1c0.1,2,0.2,3.8,0.2,5.4v11.4h-2.1v-20h2.6l10.9,16.7h0.1
			c0-0.2-0.1-1-0.1-2.4c-0.1-1.3-0.1-2.3-0.1-2.9v-11.5h2.2V435.3z"/>
		<path fill="#FFFFFF" d="M410.9,417.1c-2.2,0-3.9,0.7-5.2,2.2s-1.9,3.5-1.9,6c0,2.6,0.6,4.6,1.8,6.1c1.2,1.4,3,2.1,5.2,2.1
			c1.4,0,3-0.3,4.8-0.8v2c-1.4,0.5-3.1,0.8-5.1,0.8c-2.9,0-5.2-0.9-6.8-2.7s-2.4-4.3-2.4-7.6c0-2.1,0.4-3.9,1.2-5.4
			c0.8-1.5,1.9-2.7,3.3-3.6c1.5-0.8,3.2-1.3,5.1-1.3c2.1,0,3.9,0.4,5.5,1.1l-1,2C414,417.4,412.5,417.1,410.9,417.1z"/>
		<path fill="#FFFFFF" d="M435.6,435.3h-11.1v-20h11.1v2.1h-8.8v6.4h8.3v2.1h-8.3v7.4h8.8V435.3z"/>
	</g>
	<rect x="216.6" y="424.1" fill="#FFFFFF" width="50.8" height="2.4"/>
	<rect x="450.6" y="424.1" fill="#FFFFFF" width="50.4" height="2.4"/>
</g>
</svg>
